<svg width="504" height="504" viewBox="0 0 504 504" xmlns="http://www.w3.org/2000/svg" xmlns:xlink="http://www.w3.org/1999/xlink" > <defs /><g > <g fill="#C00040" > <path d="M 228.0 0h -8.0 q -4 0 -4 4v 20 h 4h 20 v -4 v -20 z" /><path d="M 252.0 0h -12.0 v4v 20 h 4h 20 v -4 v -20 z" /><path d="M 276.0 0h -12.0 v4v 20 h 4h 20 v -4 v -16 q 0 -4 -4 -4z" /><path d="M 228.0 24h -12.0 v4v 20 h 4h 20 v -4 v -20 z" /><path d="M 276.0 24h -12.0 v4v 16 q 0 4 4 4h 20 v -4 v -20 z" /><path d="M 300.0 24h -12.0 v4v 20 h 4h 20 v -4 v -16 q 0 -4 -4 -4z" /><path d="M 228.0 48h -12.0 v4v 16 q 0 4 4 4h 16 q 4 0 4 -4v -20 z" /><path d="M 300.0 48h -12.0 v4v 16 q 0 4 4 4h 16 q 4 0 4 -4v -20 z" /><path d="M 204.0 72h -8.0 q -4 0 -4 4v 20 h 4h 20 v -4 v -16 q 0 -4 -4 -4z" /><path d="M 252.0 72h -8.0 q -4 0 -4 4v 20 h 4h 20 v -4 v -20 z" /><path d="M 276.0 72h -12.0 v4v 20 h 4h 16 q 4 0 4 -4v -16 q 0 -4 -4 -4z" /><path d="M 204.0 96h -12.0 v4v 16 q 0 4 4 4h 16 q 4 0 4 -4v -20 z" /><path d="M 252.0 96h -12.0 v4v 20 h 4h 20 v -4 v -20 z" /><rect x="240" y="120" width="24" height="24" /><path d="M 276.0 120h -12.0 v4v 20 h 4h 20 v -4 v -20 z" /><path d="M 300.0 120h -12.0 v4v 20 h 4h 20 v -4 v -16 q 0 -4 -4 -4z" /><path d="M 204.0 144h -8.0 q -4 0 -4 4v 16 q 0 4 4 4h 16 q 4 0 4 -4v -16 q 0 -4 -4 -4z" /><path d="M 252.0 144h -12.0 v4v 20 h 4h 20 v -4 v -20 z" /><path d="M 300.0 144h -12.0 v4v 20 h 4h 20 v -4 v -20 z" /><path d="M 228.0 168h -8.0 q -4 0 -4 4v 20 h 4h 20 v -4 v -20 z" /><rect x="240" y="168" width="24" height="24" /><path d="M 276.0 168h -12.0 v4v 20 h 4h 20 v -4 v -20 z" /><rect x="288" y="168" width="24" height="24" /><path d="M 12.0 192h -8.0 q -4 0 -4 4v 20 h 4h 20 v -4 v -20 z" /><path d="M 36.0 192h -12.0 v4v 20 h 4h 16 q 4 0 4 -4v -16 q 0 -4 -4 -4z" /><path d="M 132.0 192h -8.0 q -4 0 -4 4v 20 h 4h 20 v -4 v -20 z" /><path d="M 156.0 192h -12.0 v4v 20 h 4h 20 v -4 v -20 z" /><path d="M 180.0 192h -12.0 v4v 20 h 4h 20 v -4 v -16 q 0 -4 -4 -4z" /><path d="M 228.0 192h -12.0 v4v 16 q 0 4 4 4h 16 q 4 0 4 -4v -20 z" /><path d="M 300.0 192h -12.0 v4v 16 q 0 4 4 4h 16 q 4 0 4 -4v -20 z" /><path d="M 396.0 192h -8.0 q -4 0 -4 4v 16 q 0 4 4 4h 20 v -4 v -20 z" /><path d="M 420.0 192h -12.0 v4v 20 h 4h 20 v -4 v -16 q 0 -4 -4 -4z" /><path d="M 12.0 216h -12.0 v4v 16 q 0 4 4 4h 16 q 4 0 4 -4v -20 z" /><path d="M 60.0 216h -8.0 q -4 0 -4 4v 20 h 4h 20 v -4 v -16 q 0 -4 -4 -4z" /><path d="M 108.0 216h -8.0 q -4 0 -4 4v 16 q 0 4 4 4h 20 v -4 v -20 z" /><path d="M 132.0 216h -12.0 v4v 20 h 4h 16 q 4 0 4 -4v -20 z" /><path d="M 180.0 216h -12.0 v4v 16 q 0 4 4 4h 20 v -4 v -20 z" /><path d="M 204.0 216h -12.0 v4v 20 h 4h 20 v -4 v -16 q 0 -4 -4 -4z" /><path d="M 252.0 216h -8.0 q -4 0 -4 4v 20 h 4h 20 v -4 v -16 q 0 -4 -4 -4z" /><path d="M 420.0 216h -12.0 v4v 20 h 4h 20 v -4 v -20 z" /><rect x="48" y="240" width="24" height="24" /><path d="M 84.0 240h -12.0 v4v 20 h 4h 20 v -4 v -16 q 0 -4 -4 -4z" /><path d="M 156.0 240h -8.0 q -4 0 -4 4v 16 q 0 4 4 4h 16 q 4 0 4 -4v -16 q 0 -4 -4 -4z" /><path d="M 204.0 240h -12.0 v4v 20 h 4h 20 v -4 v -20 z" /><rect x="240" y="240" width="24" height="24" /><path d="M 276.0 240h -12.0 v4v 20 h 4h 20 v -4 v -20 z" /><path d="M 300.0 240h -12.0 v4v 20 h 4h 20 v -4 v -16 q 0 -4 -4 -4z" /><path d="M 348.0 240h -8.0 q -4 0 -4 4v 16 q 0 4 4 4h 16 q 4 0 4 -4v -16 q 0 -4 -4 -4z" /><path d="M 420.0 240h -12.0 v4v 20 h 4h 20 v -4 v -20 z" /><path d="M 468.0 240h -8.0 q -4 0 -4 4v 16 q 0 4 4 4h 16 q 4 0 4 -4v -16 q 0 -4 -4 -4z" /><path d="M 36.0 264h -8.0 q -4 0 -4 4v 20 h 4h 20 v -4 v -20 z" /><rect x="48" y="264" width="24" height="24" /><path d="M 84.0 264h -12.0 v4v 20 h 4h 16 q 4 0 4 -4v -20 z" /><path d="M 180.0 264h -8.0 q -4 0 -4 4v 20 h 4h 20 v -4 v -20 z" /><rect x="192" y="264" width="24" height="24" /><path d="M 228.0 264h -12.0 v4v 20 h 4h 20 v -4 v -20 z" /><path d="M 252.0 264h -12.0 v4v 20 h 4h 16 q 4 0 4 -4v -20 z" /><rect x="288" y="264" width="24" height="24" /><path d="M 324.0 264h -12.0 v4v 20 h 4h 20 v -4 v -16 q 0 -4 -4 -4z" /><rect x="408" y="264" width="24" height="24" /><path d="M 444.0 264h -12.0 v4v 20 h 4h 16 q 4 0 4 -4v -16 q 0 -4 -4 -4z" /><path d="M 492.0 264h -8.0 q -4 0 -4 4v 20 h 4h 20 v -4 v -16 q 0 -4 -4 -4z" /><path d="M 12.0 288h -8.0 q -4 0 -4 4v 16 q 0 4 4 4h 20 v -4 v -20 z" /><path d="M 36.0 288h -12.0 v4v 20 h 4h 16 q 4 0 4 -4v -20 z" /><path d="M 108.0 288h -8.0 q -4 0 -4 4v 16 q 0 4 4 4h 16 q 4 0 4 -4v -16 q 0 -4 -4 -4z" /><path d="M 156.0 288h -8.0 q -4 0 -4 4v 16 q 0 4 4 4h 20 v -4 v -20 z" /><rect x="168" y="288" width="24" height="24" /><rect x="192" y="288" width="24" height="24" /><path d="M 300.0 288h -12.0 v4v 16 q 0 4 4 4h 20 v -4 v -20 z" /><rect x="312" y="288" width="24" height="24" /><path d="M 372.0 288h -8.0 q -4 0 -4 4v 16 q 0 4 4 4h 20 v -4 v -20 z" /><rect x="384" y="288" width="24" height="24" /><rect x="408" y="288" width="24" height="24" /><path d="M 468.0 288h -8.0 q -4 0 -4 4v 16 q 0 4 4 4h 20 v -4 v -20 z" /><path d="M 492.0 288h -12.0 v4v 20 h 4h 16 q 4 0 4 -4v -20 z" /><path d="M 204.0 312h -12.0 v4v 20 h 4h 20 v -4 v -20 z" /><path d="M 324.0 312h -12.0 v4v 20 h 4h 20 v -4 v -20 z" /><path d="M 396.0 312h -12.0 v4v 16 q 0 4 4 4h 20 v -4 v -20 z" /><rect x="408" y="312" width="24" height="24" /><path d="M 444.0 312h -12.0 v4v 20 h 4h 16 q 4 0 4 -4v -16 q 0 -4 -4 -4z" /><rect x="192" y="336" width="24" height="24" /><path d="M 228.0 336h -12.0 v4v 20 h 4h 20 v -4 v -16 q 0 -4 -4 -4z" /><path d="M 276.0 336h -8.0 q -4 0 -4 4v 20 h 4h 20 v -4 v -20 z" /><rect x="288" y="336" width="24" height="24" /><path d="M 324.0 336h -12.0 v4v 20 h 4h 16 q 4 0 4 -4v -20 z" /><path d="M 372.0 336h -8.0 q -4 0 -4 4v 16 q 0 4 4 4h 16 q 4 0 4 -4v -16 q 0 -4 -4 -4z" /><path d="M 420.0 336h -12.0 v4v 20 h 4h 20 v -4 v -20 z" /><path d="M 468.0 336h -8.0 q -4 0 -4 4v 16 q 0 4 4 4h 16 q 4 0 4 -4v -16 q 0 -4 -4 -4z" /><path d="M 204.0 360h -12.0 v4v 16 q 0 4 4 4h 20 v -4 v -20 z" /><rect x="216" y="360" width="24" height="24" /><rect x="240" y="360" width="24" height="24" /><rect x="264" y="360" width="24" height="24" /><rect x="288" y="360" width="24" height="24" /><path d="M 348.0 360h -8.0 q -4 0 -4 4v 20 h 4h 20 v -4 v -16 q 0 -4 -4 -4z" /><path d="M 420.0 360h -12.0 v4v 16 q 0 4 4 4h 20 v -4 v -20 z" /><path d="M 444.0 360h -12.0 v4v 20 h 4h 16 q 4 0 4 -4v -16 q 0 -4 -4 -4z" /><path d="M 492.0 360h -8.0 q -4 0 -4 4v 16 q 0 4 4 4h 16 q 4 0 4 -4v -16 q 0 -4 -4 -4z" /><rect x="240" y="384" width="24" height="24" /><rect x="264" y="384" width="24" height="24" /><path d="M 300.0 384h -12.0 v4v 20 h 4h 16 q 4 0 4 -4v -20 z" /><path d="M 348.0 384h -12.0 v4v 16 q 0 4 4 4h 16 q 4 0 4 -4v -20 z" /><path d="M 396.0 384h -8.0 q -4 0 -4 4v 20 h 4h 20 v -4 v -16 q 0 -4 -4 -4z" /><path d="M 228.0 408h -8.0 q -4 0 -4 4v 16 q 0 4 4 4h 20 v -4 v -20 z" /><rect x="240" y="408" width="24" height="24" /><path d="M 276.0 408h -12.0 v4v 20 h 4h 16 q 4 0 4 -4v -20 z" /><rect x="384" y="408" width="24" height="24" /><rect x="408" y="408" width="24" height="24" /><rect x="432" y="408" width="24" height="24" /><path d="M 468.0 408h -12.0 v4v 20 h 4h 20 v -4 v -16 q 0 -4 -4 -4z" /><path d="M 252.0 432h -12.0 v4v 16 q 0 4 4 4h 16 q 4 0 4 -4v -20 z" /><path d="M 300.0 432h -8.0 q -4 0 -4 4v 16 q 0 4 4 4h 20 v -4 v -20 z" /><rect x="312" y="432" width="24" height="24" /><path d="M 348.0 432h -12.0 v4v 20 h 4h 16 q 4 0 4 -4v -16 q 0 -4 -4 -4z" /><path d="M 396.0 432h -12.0 v4v 16 q 0 4 4 4h 20 v -4 v -20 z" /><rect x="408" y="432" width="24" height="24" /><rect x="432" y="432" width="24" height="24" /><rect x="456" y="432" width="24" height="24" /><path d="M 492.0 432h -12.0 v4v 20 h 4h 16 q 4 0 4 -4v -16 q 0 -4 -4 -4z" /><path d="M 204.0 456h -8.0 q -4 0 -4 4v 20 h 4h 20 v -4 v -20 z" /><path d="M 228.0 456h -12.0 v4v 20 h 4h 16 q 4 0 4 -4v -16 q 0 -4 -4 -4z" /><path d="M 324.0 456h -12.0 v4v 16 q 0 4 4 4h 16 q 4 0 4 -4v -20 z" /><path d="M 372.0 456h -8.0 q -4 0 -4 4v 20 h 4h 20 v -4 v -16 q 0 -4 -4 -4z" /><path d="M 420.0 456h -12.0 v4v 16 q 0 4 4 4h 20 v -4 v -20 z" /><path d="M 444.0 456h -12.0 v4v 20 h 4h 16 q 4 0 4 -4v -20 z" /><path d="M 204.0 480h -12.0 v4v 16 q 0 4 4 4h 16 q 4 0 4 -4v -20 z" /><path d="M 300.0 480h -8.0 q -4 0 -4 4v 16 q 0 4 4 4h 16 q 4 0 4 -4v -16 q 0 -4 -4 -4z" /><path d="M 348.0 480h -8.0 q -4 0 -4 4v 16 q 0 4 4 4h 20 v -4 v -20 z" /><path d="M 372.0 480h -12.0 v4v 20 h 4h 16 q 4 0 4 -4v -20 z" /><path d="M 468.0 480h -8.0 q -4 0 -4 4v 16 q 0 4 4 4h 16 q 4 0 4 -4v -16 q 0 -4 -4 -4z" /> </g><g > <path d="M132.0 24a12 12 90 0112 12v96a12 12 90 01-12 12h-96a12 12 90 01-12-12v-96a12 12 90 0112-12h96m0-24h-108q-24 0-24 24v120q0 24 24 24h120q24 0 24-24v-120q0-24-24-24zm-84 54v60a6 6 90 006 6h60a6 6 90 006-6v-60a6 6 90 00-6-6h-60a6 6 90 00-6 6" fill="#F070C0" fill-rule="evenodd" /><path d="M468.0 24a12 12 90 0112 12v96a12 12 90 01-12 12h-96a12 12 90 01-12-12v-96a12 12 90 0112-12h96m0-24h-108q-24 0-24 24v120q0 24 24 24h120q24 0 24-24v-120q0-24-24-24zm-84 54v60a6 6 90 006 6h60a6 6 90 006-6v-60a6 6 90 00-6-6h-60a6 6 90 00-6 6" fill="#800070" fill-rule="evenodd" /><path d="M132.0 360a12 12 90 0112 12v96a12 12 90 01-12 12h-96a12 12 90 01-12-12v-96a12 12 90 0112-12h96m0-24h-108q-24 0-24 24v120q0 24 24 24h120q24 0 24-24v-120q0-24-24-24zm-84 54v60a6 6 90 006 6h60a6 6 90 006-6v-60a6 6 90 00-6-6h-60a6 6 90 00-6 6" fill="#B02050" fill-rule="evenodd" /> </g> </g><g /> </svg>