<svg width="600" height="600" viewBox="0 0 600 600" xmlns="http://www.w3.org/2000/svg" xmlns:xlink="http://www.w3.org/1999/xlink" > <defs /><g > <g fill="#000000" > <rect x="216" y="0" width="24" height="24" /><path d="M324 21.35l-1.45-1.32c-5.15-4.67-8.55-7.76-8.55-11.53 0-3.09 2.42-5.5 5.5-5.5 1.74 0 3.41.81 4.5 2.08 1.09-1.27 2.76-2.08 4.5-2.08 3.08 0 5.5 2.41 5.5 5.5 0 3.77-3.4 6.86-8.55 11.53l-1.45 1.32z" /><rect x="384" y="0" width="24" height="24" /><path d="M204 45.35l-1.45-1.32c-5.15-4.67-8.55-7.76-8.55-11.53 0-3.09 2.42-5.5 5.5-5.5 1.74 0 3.41.81 4.5 2.08 1.09-1.27 2.76-2.08 4.5-2.08 3.08 0 5.5 2.41 5.5 5.5 0 3.77-3.4 6.86-8.55 11.53l-1.45 1.32z" /><rect x="216" y="24" width="24" height="24" /><rect x="264" y="24" width="24" height="24" /><rect x="288" y="24" width="24" height="24" /><path d="M348 45.35l-1.45-1.32c-5.15-4.67-8.55-7.76-8.55-11.53 0-3.09 2.42-5.5 5.5-5.5 1.74 0 3.41.81 4.5 2.08 1.09-1.27 2.76-2.08 4.5-2.08 3.08 0 5.5 2.41 5.5 5.5 0 3.77-3.4 6.86-8.55 11.53l-1.45 1.32z" /><path d="M372 45.35l-1.45-1.32c-5.15-4.67-8.55-7.76-8.55-11.53 0-3.09 2.42-5.5 5.5-5.5 1.74 0 3.41.81 4.5 2.08 1.09-1.27 2.76-2.08 4.5-2.08 3.08 0 5.5 2.41 5.5 5.5 0 3.77-3.4 6.86-8.55 11.53l-1.45 1.32z" /><rect x="384" y="24" width="24" height="24" /><path d="M228 69.35l-1.45-1.32c-5.15-4.67-8.55-7.76-8.55-11.53 0-3.09 2.42-5.5 5.5-5.5 1.74 0 3.41.81 4.5 2.08 1.09-1.27 2.76-2.08 4.5-2.08 3.08 0 5.5 2.41 5.5 5.5 0 3.77-3.4 6.86-8.55 11.53l-1.45 1.32z" /><rect x="240" y="48" width="24" height="24" /><path d="M276 69.35l-1.45-1.32c-5.15-4.67-8.55-7.76-8.55-11.53 0-3.09 2.42-5.5 5.5-5.5 1.74 0 3.41.81 4.5 2.08 1.09-1.27 2.76-2.08 4.5-2.08 3.08 0 5.5 2.41 5.5 5.5 0 3.77-3.4 6.86-8.55 11.53l-1.45 1.32z" /><rect x="336" y="48" width="24" height="24" /><rect x="384" y="48" width="24" height="24" /><rect x="192" y="72" width="24" height="24" /><rect x="216" y="72" width="24" height="24" /><path d="M276 93.35l-1.45-1.32c-5.15-4.67-8.55-7.76-8.55-11.53 0-3.09 2.42-5.5 5.5-5.5 1.74 0 3.41.81 4.5 2.08 1.09-1.27 2.76-2.08 4.5-2.08 3.08 0 5.5 2.41 5.5 5.5 0 3.77-3.4 6.86-8.55 11.53l-1.45 1.32z" /><rect x="240" y="96" width="24" height="24" /><path d="M300 117.35l-1.45-1.32c-5.15-4.67-8.55-7.76-8.55-11.53 0-3.09 2.42-5.5 5.5-5.5 1.74 0 3.41.81 4.5 2.08 1.09-1.27 2.76-2.08 4.5-2.08 3.08 0 5.5 2.41 5.5 5.5 0 3.77-3.4 6.86-8.55 11.53l-1.45 1.32z" /><rect x="312" y="96" width="24" height="24" /><path d="M396 117.35l-1.45-1.32c-5.15-4.67-8.55-7.76-8.55-11.53 0-3.09 2.42-5.5 5.5-5.5 1.74 0 3.41.81 4.5 2.08 1.09-1.27 2.76-2.08 4.5-2.08 3.08 0 5.5 2.41 5.5 5.5 0 3.77-3.4 6.86-8.55 11.53l-1.45 1.32z" /><rect x="192" y="120" width="24" height="24" /><path d="M252 141.35l-1.45-1.32c-5.15-4.67-8.55-7.76-8.55-11.53 0-3.09 2.42-5.5 5.5-5.5 1.74 0 3.41.81 4.5 2.08 1.09-1.27 2.76-2.08 4.5-2.08 3.08 0 5.5 2.41 5.5 5.5 0 3.77-3.4 6.86-8.55 11.53l-1.45 1.32z" /><rect x="312" y="120" width="24" height="24" /><rect x="336" y="120" width="24" height="24" /><rect x="360" y="120" width="24" height="24" /><rect x="384" y="120" width="24" height="24" /><path d="M204 165.35l-1.45-1.32c-5.15-4.67-8.55-7.76-8.55-11.53 0-3.09 2.42-5.5 5.5-5.5 1.74 0 3.41.81 4.5 2.08 1.09-1.27 2.76-2.08 4.5-2.08 3.08 0 5.5 2.41 5.5 5.5 0 3.77-3.4 6.86-8.55 11.53l-1.45 1.32z" /><path d="M252 165.35l-1.45-1.32c-5.15-4.67-8.55-7.76-8.55-11.53 0-3.09 2.42-5.5 5.5-5.5 1.74 0 3.41.81 4.5 2.08 1.09-1.27 2.76-2.08 4.5-2.08 3.08 0 5.5 2.41 5.5 5.5 0 3.77-3.4 6.86-8.55 11.53l-1.45 1.32z" /><rect x="288" y="144" width="24" height="24" /><rect x="336" y="144" width="24" height="24" /><rect x="384" y="144" width="24" height="24" /><path d="M300 189.35l-1.45-1.32c-5.15-4.67-8.55-7.76-8.55-11.53 0-3.09 2.42-5.5 5.5-5.5 1.74 0 3.41.81 4.5 2.08 1.09-1.27 2.76-2.08 4.5-2.08 3.08 0 5.5 2.41 5.5 5.5 0 3.77-3.4 6.86-8.55 11.53l-1.45 1.32z" /><path d="M324 189.35l-1.45-1.32c-5.15-4.67-8.55-7.76-8.55-11.53 0-3.09 2.42-5.5 5.5-5.5 1.74 0 3.41.81 4.5 2.08 1.09-1.27 2.76-2.08 4.5-2.08 3.08 0 5.5 2.41 5.5 5.5 0 3.77-3.4 6.86-8.55 11.53l-1.45 1.32z" /><rect x="0" y="192" width="24" height="24" /><rect x="24" y="192" width="24" height="24" /><path d="M60 213.35l-1.45-1.32c-5.15-4.67-8.55-7.76-8.55-11.53 0-3.09 2.42-5.5 5.5-5.5 1.74 0 3.41.81 4.5 2.08 1.09-1.27 2.76-2.08 4.5-2.08 3.08 0 5.5 2.41 5.5 5.5 0 3.77-3.4 6.86-8.55 11.53l-1.45 1.32z" /><rect x="72" y="192" width="24" height="24" /><path d="M108 213.35l-1.45-1.32c-5.15-4.67-8.55-7.76-8.55-11.53 0-3.09 2.42-5.5 5.5-5.5 1.74 0 3.41.81 4.5 2.08 1.09-1.27 2.76-2.08 4.5-2.08 3.08 0 5.5 2.41 5.5 5.5 0 3.77-3.4 6.86-8.55 11.53l-1.45 1.32z" /><rect x="144" y="192" width="24" height="24" /><rect x="168" y="192" width="24" height="24" /><path d="M204 213.35l-1.45-1.32c-5.15-4.67-8.55-7.76-8.55-11.53 0-3.09 2.42-5.5 5.5-5.5 1.74 0 3.41.81 4.5 2.08 1.09-1.27 2.76-2.08 4.5-2.08 3.08 0 5.5 2.41 5.5 5.5 0 3.77-3.4 6.86-8.55 11.53l-1.45 1.32z" /><path d="M228 213.35l-1.45-1.32c-5.15-4.67-8.55-7.76-8.55-11.53 0-3.09 2.42-5.5 5.5-5.5 1.74 0 3.41.81 4.5 2.08 1.09-1.27 2.76-2.08 4.5-2.08 3.08 0 5.5 2.41 5.5 5.5 0 3.77-3.4 6.86-8.55 11.53l-1.45 1.32z" /><path d="M252 213.35l-1.45-1.32c-5.15-4.67-8.55-7.76-8.55-11.53 0-3.09 2.42-5.5 5.5-5.5 1.74 0 3.41.81 4.5 2.08 1.09-1.27 2.76-2.08 4.5-2.08 3.08 0 5.5 2.41 5.5 5.5 0 3.77-3.4 6.86-8.55 11.53l-1.45 1.32z" /><rect x="288" y="192" width="24" height="24" /><rect x="336" y="192" width="24" height="24" /><rect x="360" y="192" width="24" height="24" /><rect x="408" y="192" width="24" height="24" /><rect x="456" y="192" width="24" height="24" /><path d="M516 213.35l-1.45-1.32c-5.15-4.67-8.55-7.76-8.55-11.53 0-3.09 2.42-5.5 5.5-5.5 1.74 0 3.41.81 4.5 2.08 1.09-1.27 2.76-2.08 4.5-2.08 3.08 0 5.5 2.41 5.5 5.5 0 3.77-3.4 6.86-8.55 11.53l-1.45 1.32z" /><rect x="552" y="192" width="24" height="24" /><rect x="24" y="216" width="24" height="24" /><path d="M60 237.35l-1.45-1.32c-5.15-4.67-8.55-7.76-8.55-11.53 0-3.09 2.42-5.5 5.5-5.5 1.74 0 3.41.81 4.5 2.08 1.09-1.27 2.76-2.08 4.5-2.08 3.08 0 5.5 2.41 5.5 5.5 0 3.77-3.4 6.86-8.55 11.53l-1.45 1.32z" /><path d="M84 237.35l-1.45-1.32c-5.15-4.67-8.55-7.76-8.55-11.53 0-3.09 2.42-5.5 5.5-5.5 1.74 0 3.41.81 4.5 2.08 1.09-1.27 2.76-2.08 4.5-2.08 3.08 0 5.5 2.41 5.5 5.5 0 3.77-3.4 6.86-8.55 11.53l-1.45 1.32z" /><rect x="96" y="216" width="24" height="24" /><rect x="168" y="216" width="24" height="24" /><path d="M228 237.35l-1.45-1.32c-5.15-4.67-8.55-7.76-8.55-11.53 0-3.09 2.42-5.5 5.5-5.5 1.74 0 3.41.81 4.5 2.08 1.09-1.27 2.76-2.08 4.5-2.08 3.08 0 5.5 2.41 5.5 5.5 0 3.77-3.4 6.86-8.55 11.53l-1.45 1.32z" /><rect x="384" y="216" width="24" height="24" /><path d="M468 237.35l-1.45-1.32c-5.15-4.67-8.55-7.76-8.55-11.53 0-3.09 2.42-5.5 5.5-5.5 1.74 0 3.41.81 4.5 2.08 1.09-1.27 2.76-2.08 4.5-2.08 3.08 0 5.5 2.41 5.5 5.5 0 3.77-3.4 6.86-8.55 11.53l-1.45 1.32z" /><rect x="552" y="216" width="24" height="24" /><path d="M60 261.35l-1.45-1.32c-5.15-4.67-8.55-7.76-8.55-11.53 0-3.09 2.42-5.5 5.5-5.5 1.74 0 3.41.81 4.5 2.08 1.09-1.27 2.76-2.08 4.5-2.08 3.08 0 5.5 2.41 5.5 5.5 0 3.77-3.4 6.86-8.55 11.53l-1.45 1.32z" /><rect x="72" y="240" width="24" height="24" /><path d="M132 261.35l-1.45-1.32c-5.15-4.67-8.55-7.76-8.55-11.53 0-3.09 2.42-5.5 5.5-5.5 1.74 0 3.41.81 4.5 2.08 1.09-1.27 2.76-2.08 4.5-2.08 3.08 0 5.5 2.41 5.5 5.5 0 3.77-3.4 6.86-8.55 11.53l-1.45 1.32z" /><rect x="144" y="240" width="24" height="24" /><rect x="192" y="240" width="24" height="24" /><rect x="216" y="240" width="24" height="24" /><rect x="264" y="240" width="24" height="24" /><rect x="288" y="240" width="24" height="24" /><rect x="360" y="240" width="24" height="24" /><rect x="408" y="240" width="24" height="24" /><rect x="456" y="240" width="24" height="24" /><path d="M492 261.35l-1.45-1.32c-5.15-4.67-8.55-7.76-8.55-11.53 0-3.09 2.42-5.5 5.5-5.5 1.74 0 3.41.81 4.5 2.08 1.09-1.27 2.76-2.08 4.5-2.08 3.08 0 5.5 2.41 5.5 5.5 0 3.77-3.4 6.86-8.55 11.53l-1.45 1.32z" /><path d="M516 261.35l-1.45-1.32c-5.15-4.67-8.55-7.76-8.55-11.53 0-3.09 2.42-5.5 5.5-5.5 1.74 0 3.41.81 4.5 2.08 1.09-1.27 2.76-2.08 4.5-2.08 3.08 0 5.5 2.41 5.5 5.5 0 3.77-3.4 6.86-8.55 11.53l-1.45 1.32z" /><path d="M564 261.35l-1.45-1.32c-5.15-4.67-8.55-7.76-8.55-11.53 0-3.09 2.42-5.5 5.5-5.5 1.74 0 3.41.81 4.5 2.08 1.09-1.27 2.76-2.08 4.5-2.08 3.08 0 5.5 2.41 5.5 5.5 0 3.77-3.4 6.86-8.55 11.53l-1.45 1.32z" /><rect x="576" y="240" width="24" height="24" /><path d="M60 285.35l-1.45-1.32c-5.15-4.67-8.55-7.76-8.55-11.53 0-3.09 2.42-5.5 5.5-5.5 1.74 0 3.41.81 4.5 2.08 1.09-1.27 2.76-2.08 4.5-2.08 3.08 0 5.5 2.41 5.5 5.5 0 3.77-3.4 6.86-8.55 11.53l-1.45 1.32z" /><rect x="168" y="264" width="24" height="24" /><path d="M204 285.35l-1.45-1.32c-5.15-4.67-8.55-7.76-8.55-11.53 0-3.09 2.42-5.5 5.5-5.5 1.74 0 3.41.81 4.5 2.08 1.09-1.27 2.76-2.08 4.5-2.08 3.08 0 5.5 2.41 5.5 5.5 0 3.77-3.4 6.86-8.55 11.53l-1.45 1.32z" /><rect x="216" y="264" width="24" height="24" /><rect x="240" y="264" width="24" height="24" /><rect x="264" y="264" width="24" height="24" /><path d="M348 285.35l-1.45-1.32c-5.15-4.67-8.55-7.76-8.55-11.53 0-3.09 2.42-5.5 5.5-5.5 1.74 0 3.41.81 4.5 2.08 1.09-1.27 2.76-2.08 4.5-2.08 3.08 0 5.5 2.41 5.5 5.5 0 3.77-3.4 6.86-8.55 11.53l-1.45 1.32z" /><rect x="384" y="264" width="24" height="24" /><rect x="408" y="264" width="24" height="24" /><rect x="456" y="264" width="24" height="24" /><path d="M588 285.35l-1.45-1.32c-5.15-4.67-8.55-7.76-8.55-11.53 0-3.09 2.42-5.5 5.5-5.5 1.74 0 3.41.81 4.5 2.08 1.09-1.27 2.76-2.08 4.5-2.08 3.08 0 5.5 2.41 5.5 5.5 0 3.77-3.4 6.86-8.55 11.53l-1.45 1.32z" /><path d="M12 309.35l-1.45-1.32c-5.15-4.67-8.55-7.76-8.55-11.53 0-3.09 2.42-5.5 5.5-5.5 1.74 0 3.41.81 4.5 2.08 1.09-1.27 2.76-2.08 4.5-2.08 3.08 0 5.5 2.41 5.5 5.5 0 3.77-3.4 6.86-8.55 11.53l-1.45 1.32z" /><rect x="96" y="288" width="24" height="24" /><rect x="144" y="288" width="24" height="24" /><rect x="216" y="288" width="24" height="24" /><path d="M276 309.35l-1.45-1.32c-5.15-4.67-8.55-7.76-8.55-11.53 0-3.09 2.42-5.5 5.5-5.5 1.74 0 3.41.81 4.5 2.08 1.09-1.27 2.76-2.08 4.5-2.08 3.08 0 5.5 2.41 5.5 5.5 0 3.77-3.4 6.86-8.55 11.53l-1.45 1.32z" /><path d="M420 309.35l-1.45-1.32c-5.15-4.67-8.55-7.76-8.55-11.53 0-3.09 2.42-5.5 5.5-5.5 1.74 0 3.41.81 4.5 2.08 1.09-1.27 2.76-2.08 4.5-2.08 3.08 0 5.5 2.41 5.5 5.5 0 3.77-3.4 6.86-8.55 11.53l-1.45 1.32z" /><path d="M444 309.35l-1.45-1.32c-5.15-4.67-8.55-7.76-8.55-11.53 0-3.09 2.42-5.5 5.5-5.5 1.74 0 3.41.81 4.5 2.08 1.09-1.27 2.76-2.08 4.5-2.08 3.08 0 5.5 2.41 5.5 5.5 0 3.77-3.4 6.86-8.55 11.53l-1.45 1.32z" /><path d="M492 309.35l-1.45-1.32c-5.15-4.67-8.55-7.76-8.55-11.53 0-3.09 2.42-5.5 5.5-5.5 1.74 0 3.41.81 4.5 2.08 1.09-1.27 2.76-2.08 4.5-2.08 3.08 0 5.5 2.41 5.5 5.5 0 3.77-3.4 6.86-8.55 11.53l-1.45 1.32z" /><rect x="528" y="288" width="24" height="24" /><rect x="552" y="288" width="24" height="24" /><rect x="576" y="288" width="24" height="24" /><path d="M12 333.35l-1.45-1.32c-5.15-4.67-8.55-7.76-8.55-11.53 0-3.09 2.42-5.5 5.5-5.5 1.74 0 3.41.81 4.5 2.08 1.09-1.27 2.76-2.08 4.5-2.08 3.08 0 5.5 2.41 5.5 5.5 0 3.77-3.4 6.86-8.55 11.53l-1.45 1.32z" /><rect x="24" y="312" width="24" height="24" /><path d="M60 333.35l-1.45-1.32c-5.15-4.67-8.55-7.76-8.55-11.53 0-3.09 2.42-5.5 5.5-5.5 1.74 0 3.41.81 4.5 2.08 1.09-1.27 2.76-2.08 4.5-2.08 3.08 0 5.5 2.41 5.5 5.5 0 3.77-3.4 6.86-8.55 11.53l-1.45 1.32z" /><path d="M132 333.35l-1.45-1.32c-5.15-4.67-8.55-7.76-8.55-11.53 0-3.09 2.42-5.5 5.5-5.5 1.74 0 3.41.81 4.5 2.08 1.09-1.27 2.76-2.08 4.5-2.08 3.08 0 5.5 2.41 5.5 5.5 0 3.77-3.4 6.86-8.55 11.53l-1.45 1.32z" /><path d="M252 333.35l-1.45-1.32c-5.15-4.67-8.55-7.76-8.55-11.53 0-3.09 2.42-5.5 5.5-5.5 1.74 0 3.41.81 4.5 2.08 1.09-1.27 2.76-2.08 4.5-2.08 3.08 0 5.5 2.41 5.5 5.5 0 3.77-3.4 6.86-8.55 11.53l-1.45 1.32z" /><rect x="288" y="312" width="24" height="24" /><rect x="312" y="312" width="24" height="24" /><rect x="336" y="312" width="24" height="24" /><rect x="456" y="312" width="24" height="24" /><rect x="504" y="312" width="24" height="24" /><rect x="552" y="312" width="24" height="24" /><path d="M12 357.35l-1.45-1.32c-5.15-4.67-8.55-7.76-8.55-11.53 0-3.09 2.42-5.5 5.5-5.5 1.74 0 3.41.81 4.5 2.08 1.09-1.27 2.76-2.08 4.5-2.08 3.08 0 5.5 2.41 5.5 5.5 0 3.77-3.4 6.86-8.55 11.53l-1.45 1.32z" /><path d="M132 357.35l-1.45-1.32c-5.15-4.67-8.55-7.76-8.55-11.53 0-3.09 2.42-5.5 5.5-5.5 1.74 0 3.41.81 4.5 2.08 1.09-1.27 2.76-2.08 4.5-2.08 3.08 0 5.5 2.41 5.5 5.5 0 3.77-3.4 6.86-8.55 11.53l-1.45 1.32z" /><path d="M156 357.35l-1.45-1.32c-5.15-4.67-8.55-7.76-8.55-11.53 0-3.09 2.42-5.5 5.5-5.5 1.74 0 3.41.81 4.5 2.08 1.09-1.27 2.76-2.08 4.5-2.08 3.08 0 5.5 2.41 5.5 5.5 0 3.77-3.4 6.86-8.55 11.53l-1.45 1.32z" /><path d="M204 357.35l-1.45-1.32c-5.15-4.67-8.55-7.76-8.55-11.53 0-3.09 2.42-5.5 5.5-5.5 1.74 0 3.41.81 4.5 2.08 1.09-1.27 2.76-2.08 4.5-2.08 3.08 0 5.5 2.41 5.5 5.5 0 3.77-3.4 6.86-8.55 11.53l-1.45 1.32z" /><path d="M228 357.35l-1.45-1.32c-5.15-4.67-8.55-7.76-8.55-11.53 0-3.09 2.42-5.5 5.5-5.5 1.74 0 3.41.81 4.5 2.08 1.09-1.27 2.76-2.08 4.5-2.08 3.08 0 5.5 2.41 5.5 5.5 0 3.77-3.4 6.86-8.55 11.53l-1.45 1.32z" /><rect x="312" y="336" width="24" height="24" /><path d="M348 357.35l-1.45-1.32c-5.15-4.67-8.55-7.76-8.55-11.53 0-3.09 2.42-5.5 5.5-5.5 1.74 0 3.41.81 4.5 2.08 1.09-1.27 2.76-2.08 4.5-2.08 3.08 0 5.5 2.41 5.5 5.5 0 3.77-3.4 6.86-8.55 11.53l-1.45 1.32z" /><path d="M372 357.35l-1.45-1.32c-5.15-4.67-8.55-7.76-8.55-11.53 0-3.09 2.42-5.5 5.5-5.5 1.74 0 3.41.81 4.5 2.08 1.09-1.27 2.76-2.08 4.5-2.08 3.08 0 5.5 2.41 5.5 5.5 0 3.77-3.4 6.86-8.55 11.53l-1.45 1.32z" /><path d="M396 357.35l-1.45-1.32c-5.15-4.67-8.55-7.76-8.55-11.53 0-3.09 2.42-5.5 5.5-5.5 1.74 0 3.41.81 4.5 2.08 1.09-1.27 2.76-2.08 4.5-2.08 3.08 0 5.5 2.41 5.5 5.5 0 3.77-3.4 6.86-8.55 11.53l-1.45 1.32z" /><rect x="408" y="336" width="24" height="24" /><path d="M468 357.35l-1.45-1.32c-5.15-4.67-8.55-7.76-8.55-11.53 0-3.09 2.42-5.5 5.5-5.5 1.74 0 3.41.81 4.5 2.08 1.09-1.27 2.76-2.08 4.5-2.08 3.08 0 5.5 2.41 5.5 5.5 0 3.77-3.4 6.86-8.55 11.53l-1.45 1.32z" /><rect x="480" y="336" width="24" height="24" /><rect x="504" y="336" width="24" height="24" /><rect x="552" y="336" width="24" height="24" /><rect x="576" y="336" width="24" height="24" /><path d="M12 381.35l-1.45-1.32c-5.15-4.67-8.55-7.76-8.55-11.53 0-3.09 2.42-5.5 5.5-5.5 1.74 0 3.41.81 4.5 2.08 1.09-1.27 2.76-2.08 4.5-2.08 3.08 0 5.5 2.41 5.5 5.5 0 3.77-3.4 6.86-8.55 11.53l-1.45 1.32z" /><path d="M60 381.35l-1.45-1.32c-5.15-4.67-8.55-7.76-8.55-11.53 0-3.09 2.42-5.5 5.5-5.5 1.74 0 3.41.81 4.5 2.08 1.09-1.27 2.76-2.08 4.5-2.08 3.08 0 5.5 2.41 5.5 5.5 0 3.77-3.4 6.86-8.55 11.53l-1.45 1.32z" /><path d="M84 381.35l-1.45-1.32c-5.15-4.67-8.55-7.76-8.55-11.53 0-3.09 2.42-5.5 5.5-5.5 1.74 0 3.41.81 4.5 2.08 1.09-1.27 2.76-2.08 4.5-2.08 3.08 0 5.5 2.41 5.5 5.5 0 3.77-3.4 6.86-8.55 11.53l-1.45 1.32z" /><path d="M108 381.35l-1.45-1.32c-5.15-4.67-8.55-7.76-8.55-11.53 0-3.09 2.42-5.5 5.5-5.5 1.74 0 3.41.81 4.5 2.08 1.09-1.27 2.76-2.08 4.5-2.08 3.08 0 5.5 2.41 5.5 5.5 0 3.77-3.4 6.86-8.55 11.53l-1.45 1.32z" /><path d="M180 381.35l-1.45-1.32c-5.15-4.67-8.55-7.76-8.55-11.53 0-3.09 2.42-5.5 5.5-5.5 1.74 0 3.41.81 4.5 2.08 1.09-1.27 2.76-2.08 4.5-2.08 3.08 0 5.5 2.41 5.5 5.5 0 3.77-3.4 6.86-8.55 11.53l-1.45 1.32z" /><path d="M204 381.35l-1.45-1.32c-5.15-4.67-8.55-7.76-8.55-11.53 0-3.09 2.42-5.5 5.5-5.5 1.74 0 3.41.81 4.5 2.08 1.09-1.27 2.76-2.08 4.5-2.08 3.08 0 5.5 2.41 5.5 5.5 0 3.77-3.4 6.86-8.55 11.53l-1.45 1.32z" /><rect x="216" y="360" width="24" height="24" /><rect x="288" y="360" width="24" height="24" /><rect x="312" y="360" width="24" height="24" /><rect x="360" y="360" width="24" height="24" /><rect x="384" y="360" width="24" height="24" /><path d="M420 381.35l-1.45-1.32c-5.15-4.67-8.55-7.76-8.55-11.53 0-3.09 2.42-5.5 5.5-5.5 1.74 0 3.41.81 4.5 2.08 1.09-1.27 2.76-2.08 4.5-2.08 3.08 0 5.5 2.41 5.5 5.5 0 3.77-3.4 6.86-8.55 11.53l-1.45 1.32z" /><rect x="456" y="360" width="24" height="24" /><path d="M492 381.35l-1.45-1.32c-5.15-4.67-8.55-7.76-8.55-11.53 0-3.09 2.42-5.5 5.5-5.5 1.74 0 3.41.81 4.5 2.08 1.09-1.27 2.76-2.08 4.5-2.08 3.08 0 5.5 2.41 5.5 5.5 0 3.77-3.4 6.86-8.55 11.53l-1.45 1.32z" /><rect x="576" y="360" width="24" height="24" /><path d="M12 405.35l-1.45-1.32c-5.15-4.67-8.55-7.76-8.55-11.53 0-3.09 2.42-5.5 5.5-5.5 1.74 0 3.41.81 4.5 2.08 1.09-1.27 2.76-2.08 4.5-2.08 3.08 0 5.5 2.41 5.5 5.5 0 3.77-3.4 6.86-8.55 11.53l-1.45 1.32z" /><rect x="48" y="384" width="24" height="24" /><path d="M84 405.35l-1.45-1.32c-5.15-4.67-8.55-7.76-8.55-11.53 0-3.09 2.42-5.5 5.5-5.5 1.74 0 3.41.81 4.5 2.08 1.09-1.27 2.76-2.08 4.5-2.08 3.08 0 5.5 2.41 5.5 5.5 0 3.77-3.4 6.86-8.55 11.53l-1.45 1.32z" /><path d="M108 405.35l-1.45-1.32c-5.15-4.67-8.55-7.76-8.55-11.53 0-3.09 2.42-5.5 5.5-5.5 1.74 0 3.41.81 4.5 2.08 1.09-1.27 2.76-2.08 4.5-2.08 3.08 0 5.5 2.41 5.5 5.5 0 3.77-3.4 6.86-8.55 11.53l-1.45 1.32z" /><rect x="144" y="384" width="24" height="24" /><rect x="240" y="384" width="24" height="24" /><path d="M300 405.35l-1.45-1.32c-5.15-4.67-8.55-7.76-8.55-11.53 0-3.09 2.42-5.5 5.5-5.5 1.74 0 3.41.81 4.5 2.08 1.09-1.27 2.76-2.08 4.5-2.08 3.08 0 5.5 2.41 5.5 5.5 0 3.77-3.4 6.86-8.55 11.53l-1.45 1.32z" /><path d="M348 405.35l-1.45-1.32c-5.15-4.67-8.55-7.76-8.55-11.53 0-3.09 2.42-5.5 5.5-5.5 1.74 0 3.41.81 4.5 2.08 1.09-1.27 2.76-2.08 4.5-2.08 3.08 0 5.5 2.41 5.5 5.5 0 3.77-3.4 6.86-8.55 11.53l-1.45 1.32z" /><path d="M372 405.35l-1.45-1.32c-5.15-4.67-8.55-7.76-8.55-11.53 0-3.09 2.42-5.5 5.5-5.5 1.74 0 3.41.81 4.5 2.08 1.09-1.27 2.76-2.08 4.5-2.08 3.08 0 5.5 2.41 5.5 5.5 0 3.77-3.4 6.86-8.55 11.53l-1.45 1.32z" /><path d="M396 405.35l-1.45-1.32c-5.15-4.67-8.55-7.76-8.55-11.53 0-3.09 2.42-5.5 5.5-5.5 1.74 0 3.41.81 4.5 2.08 1.09-1.27 2.76-2.08 4.5-2.08 3.08 0 5.5 2.41 5.5 5.5 0 3.77-3.4 6.86-8.55 11.53l-1.45 1.32z" /><path d="M420 405.35l-1.45-1.32c-5.15-4.67-8.55-7.76-8.55-11.53 0-3.09 2.42-5.5 5.5-5.5 1.74 0 3.41.81 4.5 2.08 1.09-1.27 2.76-2.08 4.5-2.08 3.08 0 5.5 2.41 5.5 5.5 0 3.77-3.4 6.86-8.55 11.53l-1.45 1.32z" /><path d="M444 405.35l-1.45-1.32c-5.15-4.67-8.55-7.76-8.55-11.53 0-3.09 2.42-5.5 5.5-5.5 1.74 0 3.41.81 4.5 2.08 1.09-1.27 2.76-2.08 4.5-2.08 3.08 0 5.5 2.41 5.5 5.5 0 3.77-3.4 6.86-8.55 11.53l-1.45 1.32z" /><rect x="456" y="384" width="24" height="24" /><rect x="480" y="384" width="24" height="24" /><path d="M540 405.35l-1.45-1.32c-5.15-4.67-8.55-7.76-8.55-11.53 0-3.09 2.42-5.5 5.5-5.5 1.74 0 3.41.81 4.5 2.08 1.09-1.27 2.76-2.08 4.5-2.08 3.08 0 5.5 2.41 5.5 5.5 0 3.77-3.4 6.86-8.55 11.53l-1.45 1.32z" /><rect x="192" y="408" width="24" height="24" /><rect x="360" y="408" width="24" height="24" /><rect x="384" y="408" width="24" height="24" /><path d="M492 429.35l-1.45-1.32c-5.15-4.67-8.55-7.76-8.55-11.53 0-3.09 2.42-5.5 5.5-5.5 1.74 0 3.41.81 4.5 2.08 1.09-1.27 2.76-2.08 4.5-2.08 3.08 0 5.5 2.41 5.5 5.5 0 3.77-3.4 6.86-8.55 11.53l-1.45 1.32z" /><rect x="504" y="408" width="24" height="24" /><rect x="192" y="432" width="24" height="24" /><rect x="240" y="432" width="24" height="24" /><rect x="264" y="432" width="24" height="24" /><path d="M300 453.35l-1.45-1.32c-5.15-4.67-8.55-7.76-8.55-11.53 0-3.09 2.42-5.5 5.5-5.5 1.74 0 3.41.81 4.5 2.08 1.09-1.27 2.76-2.08 4.5-2.08 3.08 0 5.5 2.41 5.5 5.5 0 3.77-3.4 6.86-8.55 11.53l-1.45 1.32z" /><path d="M396 453.35l-1.45-1.32c-5.15-4.67-8.55-7.76-8.55-11.53 0-3.09 2.42-5.5 5.5-5.5 1.74 0 3.41.81 4.5 2.08 1.09-1.27 2.76-2.08 4.5-2.08 3.08 0 5.5 2.41 5.5 5.5 0 3.77-3.4 6.86-8.55 11.53l-1.45 1.32z" /><path d="M444 453.35l-1.45-1.32c-5.15-4.67-8.55-7.76-8.55-11.53 0-3.09 2.42-5.5 5.5-5.5 1.74 0 3.41.81 4.5 2.08 1.09-1.27 2.76-2.08 4.5-2.08 3.08 0 5.5 2.41 5.5 5.5 0 3.77-3.4 6.86-8.55 11.53l-1.45 1.32z" /><rect x="480" y="432" width="24" height="24" /><path d="M540 453.35l-1.45-1.32c-5.15-4.67-8.55-7.76-8.55-11.53 0-3.09 2.42-5.5 5.5-5.5 1.74 0 3.41.81 4.5 2.08 1.09-1.27 2.76-2.08 4.5-2.08 3.08 0 5.5 2.41 5.5 5.5 0 3.77-3.4 6.86-8.55 11.53l-1.45 1.32z" /><path d="M564 453.35l-1.45-1.32c-5.15-4.67-8.55-7.76-8.55-11.53 0-3.09 2.42-5.5 5.5-5.5 1.74 0 3.41.81 4.5 2.08 1.09-1.27 2.76-2.08 4.5-2.08 3.08 0 5.5 2.41 5.5 5.5 0 3.77-3.4 6.86-8.55 11.53l-1.45 1.32z" /><rect x="576" y="432" width="24" height="24" /><rect x="216" y="456" width="24" height="24" /><rect x="264" y="456" width="24" height="24" /><rect x="336" y="456" width="24" height="24" /><path d="M396 477.35l-1.45-1.32c-5.15-4.67-8.55-7.76-8.55-11.53 0-3.09 2.42-5.5 5.5-5.5 1.74 0 3.41.81 4.5 2.08 1.09-1.27 2.76-2.08 4.5-2.08 3.08 0 5.5 2.41 5.5 5.5 0 3.77-3.4 6.86-8.55 11.53l-1.45 1.32z" /><path d="M492 477.35l-1.45-1.32c-5.15-4.67-8.55-7.76-8.55-11.53 0-3.09 2.42-5.5 5.5-5.5 1.74 0 3.41.81 4.5 2.08 1.09-1.27 2.76-2.08 4.5-2.08 3.08 0 5.5 2.41 5.5 5.5 0 3.77-3.4 6.86-8.55 11.53l-1.45 1.32z" /><rect x="504" y="456" width="24" height="24" /><path d="M204 501.35l-1.45-1.32c-5.15-4.67-8.55-7.76-8.55-11.53 0-3.09 2.42-5.5 5.5-5.5 1.74 0 3.41.81 4.5 2.08 1.09-1.27 2.76-2.08 4.5-2.08 3.08 0 5.5 2.41 5.5 5.5 0 3.77-3.4 6.86-8.55 11.53l-1.45 1.32z" /><rect x="216" y="480" width="24" height="24" /><path d="M276 501.35l-1.45-1.32c-5.15-4.67-8.55-7.76-8.55-11.53 0-3.09 2.42-5.5 5.5-5.5 1.74 0 3.41.81 4.5 2.08 1.09-1.27 2.76-2.08 4.5-2.08 3.08 0 5.5 2.41 5.5 5.5 0 3.77-3.4 6.86-8.55 11.53l-1.45 1.32z" /><path d="M372 501.35l-1.45-1.32c-5.15-4.67-8.55-7.76-8.55-11.53 0-3.09 2.42-5.5 5.5-5.5 1.74 0 3.41.81 4.5 2.08 1.09-1.27 2.76-2.08 4.5-2.08 3.08 0 5.5 2.41 5.5 5.5 0 3.77-3.4 6.86-8.55 11.53l-1.45 1.32z" /><rect x="384" y="480" width="24" height="24" /><rect x="408" y="480" width="24" height="24" /><rect x="432" y="480" width="24" height="24" /><path d="M468 501.35l-1.45-1.32c-5.15-4.67-8.55-7.76-8.55-11.53 0-3.09 2.42-5.5 5.5-5.5 1.74 0 3.41.81 4.5 2.08 1.09-1.27 2.76-2.08 4.5-2.08 3.08 0 5.5 2.41 5.5 5.5 0 3.77-3.4 6.86-8.55 11.53l-1.45 1.32z" /><path d="M492 501.35l-1.45-1.32c-5.15-4.67-8.55-7.76-8.55-11.53 0-3.09 2.42-5.5 5.5-5.5 1.74 0 3.41.81 4.5 2.08 1.09-1.27 2.76-2.08 4.5-2.08 3.08 0 5.5 2.41 5.5 5.5 0 3.77-3.4 6.86-8.55 11.53l-1.45 1.32z" /><rect x="528" y="480" width="24" height="24" /><rect x="576" y="480" width="24" height="24" /><rect x="192" y="504" width="24" height="24" /><path d="M228 525.35l-1.45-1.32c-5.15-4.67-8.55-7.76-8.55-11.53 0-3.09 2.42-5.5 5.5-5.5 1.74 0 3.41.81 4.5 2.08 1.09-1.27 2.76-2.08 4.5-2.08 3.08 0 5.5 2.41 5.5 5.5 0 3.77-3.4 6.86-8.55 11.53l-1.45 1.32z" /><path d="M252 525.35l-1.45-1.32c-5.15-4.67-8.55-7.76-8.55-11.53 0-3.09 2.42-5.5 5.5-5.5 1.74 0 3.41.81 4.5 2.08 1.09-1.27 2.76-2.08 4.5-2.08 3.08 0 5.5 2.41 5.5 5.5 0 3.77-3.4 6.86-8.55 11.53l-1.45 1.32z" /><rect x="288" y="504" width="24" height="24" /><path d="M324 525.35l-1.45-1.32c-5.15-4.67-8.55-7.76-8.55-11.53 0-3.09 2.42-5.5 5.5-5.5 1.74 0 3.41.81 4.5 2.08 1.09-1.27 2.76-2.08 4.5-2.08 3.08 0 5.5 2.41 5.5 5.5 0 3.77-3.4 6.86-8.55 11.53l-1.45 1.32z" /><path d="M348 525.35l-1.45-1.32c-5.15-4.67-8.55-7.76-8.55-11.53 0-3.09 2.42-5.5 5.5-5.5 1.74 0 3.41.81 4.5 2.08 1.09-1.27 2.76-2.08 4.5-2.08 3.08 0 5.5 2.41 5.5 5.5 0 3.77-3.4 6.86-8.55 11.53l-1.45 1.32z" /><rect x="360" y="504" width="24" height="24" /><path d="M420 525.35l-1.45-1.32c-5.15-4.67-8.55-7.76-8.55-11.53 0-3.09 2.42-5.5 5.5-5.5 1.74 0 3.41.81 4.5 2.08 1.09-1.27 2.76-2.08 4.5-2.08 3.08 0 5.5 2.41 5.5 5.5 0 3.77-3.4 6.86-8.55 11.53l-1.45 1.32z" /><path d="M444 525.35l-1.45-1.32c-5.15-4.67-8.55-7.76-8.55-11.53 0-3.09 2.42-5.5 5.5-5.5 1.74 0 3.41.81 4.5 2.08 1.09-1.27 2.76-2.08 4.5-2.08 3.08 0 5.5 2.41 5.5 5.5 0 3.77-3.4 6.86-8.55 11.53l-1.45 1.32z" /><rect x="480" y="504" width="24" height="24" /><path d="M516 525.35l-1.45-1.32c-5.15-4.67-8.55-7.76-8.55-11.53 0-3.09 2.42-5.5 5.5-5.5 1.74 0 3.41.81 4.5 2.08 1.09-1.27 2.76-2.08 4.5-2.08 3.08 0 5.5 2.41 5.5 5.5 0 3.77-3.4 6.86-8.55 11.53l-1.45 1.32z" /><rect x="528" y="504" width="24" height="24" /><path d="M564 525.35l-1.45-1.32c-5.15-4.67-8.55-7.76-8.55-11.53 0-3.09 2.42-5.5 5.5-5.5 1.74 0 3.41.81 4.5 2.08 1.09-1.27 2.76-2.08 4.5-2.08 3.08 0 5.5 2.41 5.5 5.5 0 3.77-3.4 6.86-8.55 11.53l-1.45 1.32z" /><rect x="576" y="504" width="24" height="24" /><rect x="192" y="528" width="24" height="24" /><path d="M252 549.35l-1.45-1.32c-5.15-4.67-8.55-7.76-8.55-11.53 0-3.09 2.42-5.5 5.5-5.5 1.74 0 3.41.81 4.5 2.08 1.09-1.27 2.76-2.08 4.5-2.08 3.08 0 5.5 2.41 5.5 5.5 0 3.77-3.4 6.86-8.55 11.53l-1.45 1.32z" /><path d="M324 549.35l-1.45-1.32c-5.15-4.67-8.55-7.76-8.55-11.53 0-3.09 2.42-5.5 5.5-5.5 1.74 0 3.41.81 4.5 2.08 1.09-1.27 2.76-2.08 4.5-2.08 3.08 0 5.5 2.41 5.5 5.5 0 3.77-3.4 6.86-8.55 11.53l-1.45 1.32z" /><rect x="336" y="528" width="24" height="24" /><path d="M396 549.35l-1.45-1.32c-5.15-4.67-8.55-7.76-8.55-11.53 0-3.09 2.42-5.5 5.5-5.5 1.74 0 3.41.81 4.5 2.08 1.09-1.27 2.76-2.08 4.5-2.08 3.08 0 5.5 2.41 5.5 5.5 0 3.77-3.4 6.86-8.55 11.53l-1.45 1.32z" /><path d="M516 549.35l-1.45-1.32c-5.15-4.67-8.55-7.76-8.55-11.53 0-3.09 2.42-5.5 5.5-5.5 1.74 0 3.41.81 4.5 2.08 1.09-1.27 2.76-2.08 4.5-2.08 3.08 0 5.5 2.41 5.5 5.5 0 3.77-3.4 6.86-8.55 11.53l-1.45 1.32z" /><rect x="528" y="528" width="24" height="24" /><path d="M588 549.35l-1.45-1.32c-5.15-4.67-8.55-7.76-8.55-11.53 0-3.09 2.42-5.5 5.5-5.5 1.74 0 3.41.81 4.5 2.08 1.09-1.27 2.76-2.08 4.5-2.08 3.08 0 5.5 2.41 5.5 5.5 0 3.77-3.4 6.86-8.55 11.53l-1.45 1.32z" /><path d="M204 573.35l-1.45-1.32c-5.15-4.67-8.55-7.76-8.55-11.53 0-3.09 2.42-5.5 5.5-5.5 1.74 0 3.41.81 4.5 2.08 1.09-1.27 2.76-2.08 4.5-2.08 3.08 0 5.5 2.41 5.5 5.5 0 3.77-3.4 6.86-8.55 11.53l-1.45 1.32z" /><rect x="216" y="552" width="24" height="24" /><path d="M252 573.35l-1.45-1.32c-5.15-4.67-8.55-7.76-8.55-11.53 0-3.09 2.42-5.5 5.5-5.5 1.74 0 3.41.81 4.5 2.08 1.09-1.27 2.76-2.08 4.5-2.08 3.08 0 5.5 2.41 5.5 5.5 0 3.77-3.4 6.86-8.55 11.53l-1.45 1.32z" /><path d="M300 573.35l-1.45-1.32c-5.15-4.67-8.55-7.76-8.55-11.53 0-3.09 2.42-5.5 5.5-5.5 1.74 0 3.41.81 4.5 2.08 1.09-1.27 2.76-2.08 4.5-2.08 3.08 0 5.5 2.41 5.5 5.5 0 3.77-3.4 6.86-8.55 11.53l-1.45 1.32z" /><path d="M324 573.35l-1.45-1.32c-5.15-4.67-8.55-7.76-8.55-11.53 0-3.09 2.42-5.5 5.5-5.5 1.74 0 3.41.81 4.5 2.08 1.09-1.27 2.76-2.08 4.5-2.08 3.08 0 5.5 2.41 5.5 5.5 0 3.77-3.4 6.86-8.55 11.53l-1.45 1.32z" /><path d="M372 573.35l-1.45-1.32c-5.15-4.67-8.55-7.76-8.55-11.53 0-3.09 2.42-5.5 5.5-5.5 1.74 0 3.41.81 4.5 2.08 1.09-1.27 2.76-2.08 4.5-2.08 3.08 0 5.5 2.41 5.5 5.5 0 3.77-3.4 6.86-8.55 11.53l-1.45 1.32z" /><path d="M396 573.35l-1.45-1.32c-5.15-4.67-8.55-7.76-8.55-11.53 0-3.09 2.42-5.5 5.5-5.5 1.74 0 3.41.81 4.5 2.08 1.09-1.27 2.76-2.08 4.5-2.08 3.08 0 5.5 2.41 5.5 5.5 0 3.77-3.4 6.86-8.55 11.53l-1.45 1.32z" /><path d="M420 573.35l-1.45-1.32c-5.15-4.67-8.55-7.76-8.55-11.53 0-3.09 2.42-5.5 5.5-5.5 1.74 0 3.41.81 4.5 2.08 1.09-1.27 2.76-2.08 4.5-2.08 3.08 0 5.5 2.41 5.5 5.5 0 3.77-3.4 6.86-8.55 11.53l-1.45 1.32z" /><rect x="432" y="552" width="24" height="24" /><rect x="456" y="552" width="24" height="24" /><rect x="480" y="552" width="24" height="24" /><rect x="504" y="552" width="24" height="24" /><path d="M588 573.35l-1.45-1.32c-5.15-4.67-8.55-7.76-8.55-11.53 0-3.09 2.42-5.5 5.5-5.5 1.74 0 3.41.81 4.5 2.08 1.09-1.27 2.76-2.08 4.5-2.08 3.08 0 5.5 2.41 5.5 5.5 0 3.77-3.4 6.86-8.55 11.53l-1.45 1.32z" /><rect x="192" y="576" width="24" height="24" /><path d="M228 597.35l-1.45-1.32c-5.15-4.67-8.55-7.76-8.55-11.53 0-3.09 2.42-5.5 5.5-5.5 1.74 0 3.41.81 4.5 2.08 1.09-1.27 2.76-2.08 4.5-2.08 3.08 0 5.5 2.41 5.5 5.5 0 3.77-3.4 6.86-8.55 11.53l-1.45 1.32z" /><rect x="240" y="576" width="24" height="24" /><path d="M300 597.35l-1.45-1.32c-5.15-4.67-8.55-7.76-8.55-11.53 0-3.09 2.42-5.5 5.5-5.5 1.74 0 3.41.81 4.5 2.08 1.09-1.27 2.76-2.08 4.5-2.08 3.08 0 5.5 2.41 5.5 5.5 0 3.77-3.4 6.86-8.55 11.53l-1.45 1.32z" /><path d="M348 597.35l-1.45-1.32c-5.15-4.67-8.55-7.76-8.55-11.53 0-3.09 2.42-5.5 5.5-5.5 1.74 0 3.41.81 4.5 2.08 1.09-1.27 2.76-2.08 4.5-2.08 3.08 0 5.5 2.41 5.5 5.5 0 3.77-3.4 6.86-8.55 11.53l-1.45 1.32z" /><path d="M420 597.35l-1.45-1.32c-5.15-4.67-8.55-7.76-8.55-11.53 0-3.09 2.42-5.5 5.5-5.5 1.74 0 3.41.81 4.5 2.08 1.09-1.27 2.76-2.08 4.5-2.08 3.08 0 5.5 2.41 5.5 5.5 0 3.77-3.4 6.86-8.55 11.53l-1.45 1.32z" /><path d="M468 597.35l-1.45-1.32c-5.15-4.67-8.55-7.76-8.55-11.53 0-3.09 2.42-5.5 5.5-5.5 1.74 0 3.41.81 4.5 2.08 1.09-1.27 2.76-2.08 4.5-2.08 3.08 0 5.5 2.41 5.5 5.5 0 3.77-3.4 6.86-8.55 11.53l-1.45 1.32z" /><rect x="480" y="576" width="24" height="24" /><rect x="504" y="576" width="24" height="24" /><rect x="528" y="576" width="24" height="24" /><path d="M564 597.35l-1.45-1.32c-5.15-4.67-8.55-7.76-8.55-11.53 0-3.09 2.42-5.5 5.5-5.5 1.74 0 3.41.81 4.5 2.08 1.09-1.27 2.76-2.08 4.5-2.08 3.08 0 5.5 2.41 5.5 5.5 0 3.77-3.4 6.86-8.55 11.53l-1.45 1.32z" /><rect x="576" y="576" width="24" height="24" /> </g><g > <path d="M132.0 24a12 12 90 0112 12v96a12 12 90 01-12 12h-96a12 12 90 01-12-12v-96a12 12 90 0112-12h96m0-24h-108q-24 0-24 24v120q0 24 24 24h120q24 0 24-24v-120q0-24-24-24zm-84 54v60a6 6 90 006 6h60a6 6 90 006-6v-60a6 6 90 00-6-6h-60a6 6 90 00-6 6" fill="#000000" fill-rule="evenodd" /><path d="M564.0 24a12 12 90 0112 12v96a12 12 90 01-12 12h-96a12 12 90 01-12-12v-96a12 12 90 0112-12h96m0-24h-108q-24 0-24 24v120q0 24 24 24h120q24 0 24-24v-120q0-24-24-24zm-84 54v60a6 6 90 006 6h60a6 6 90 006-6v-60a6 6 90 00-6-6h-60a6 6 90 00-6 6" fill="#000000" fill-rule="evenodd" /><path d="M132.0 456a12 12 90 0112 12v96a12 12 90 01-12 12h-96a12 12 90 01-12-12v-96a12 12 90 0112-12h96m0-24h-108q-24 0-24 24v120q0 24 24 24h120q24 0 24-24v-120q0-24-24-24zm-84 54v60a6 6 90 006 6h60a6 6 90 006-6v-60a6 6 90 00-6-6h-60a6 6 90 00-6 6" fill="#000000" fill-rule="evenodd" /> </g> </g><g /> </svg>