<svg width="600" height="600" viewBox="0 0 600 600" xmlns="http://www.w3.org/2000/svg" xmlns:xlink="http://www.w3.org/1999/xlink" > <defs /><g > <g fill="#000000" > <circle cx="226.0" cy="10.0" r="10.0" /><path d="M 360 2.0v 20.0h 12.0a 10.0 10.0, 0, 0, 0, 0 -20" transform="rotate(180.0,372.0,12.0)" /><path d="M 384 2.0v 20.0h 12.0a 10.0 10.0, 0, 0, 0, 0 -20" /><path d="M 192 26.0v 20.0h 12.0a 10.0 10.0, 0, 0, 0, 0 -20" transform="rotate(180.0,204.0,36.0)" /><path d="M 216 26.0v 20.0h 12.0a 10.0 10.0, 0, 0, 0, 0 -20" /><path d="M 264 26.0v 20.0h 12.0a 10.0 10.0, 0, 0, 0, 0 -20" transform="rotate(180.0,276.0,36.0)" /><rect x="288" y="26.0" width="24" height="20" /><rect x="312" y="26.0" width="24" height="20" /><rect x="336" y="26.0" width="24" height="20" /><rect x="360" y="26.0" width="24" height="20" /><path d="M 384 26.0v 20.0h 12.0a 10.0 10.0, 0, 0, 0, 0 -20" /><path d="M 216 50.0v 20.0h 12.0a 10.0 10.0, 0, 0, 0, 0 -20" transform="rotate(180.0,228.0,60.0)" /><rect x="240" y="50.0" width="24" height="20" /><path d="M 264 50.0v 20.0h 12.0a 10.0 10.0, 0, 0, 0, 0 -20" /><path d="M 192 74.0v 20.0h 12.0a 10.0 10.0, 0, 0, 0, 0 -20" transform="rotate(180.0,204.0,84.0)" /><path d="M 216 74.0v 20.0h 12.0a 10.0 10.0, 0, 0, 0, 0 -20" /><circle cx="274.0" cy="82.0" r="10.0" /><path d="M 312 74.0v 20.0h 12.0a 10.0 10.0, 0, 0, 0, 0 -20" transform="rotate(180.0,324.0,84.0)" /><rect x="336" y="74.0" width="24" height="20" /><rect x="360" y="74.0" width="24" height="20" /><path d="M 384 74.0v 20.0h 12.0a 10.0 10.0, 0, 0, 0, 0 -20" /><circle cx="250.0" cy="106.0" r="10.0" /><circle cx="298.0" cy="106.0" r="10.0" /><circle cx="202.0" cy="130.0" r="10.0" /><circle cx="250.0" cy="130.0" r="10.0" /><path d="M 360 122.0v 20.0h 12.0a 10.0 10.0, 0, 0, 0, 0 -20" transform="rotate(180.0,372.0,132.0)" /><path d="M 384 122.0v 20.0h 12.0a 10.0 10.0, 0, 0, 0, 0 -20" /><circle cx="202.0" cy="154.0" r="10.0" /><circle cx="250.0" cy="154.0" r="10.0" /><circle cx="298.0" cy="154.0" r="10.0" /><circle cx="346.0" cy="154.0" r="10.0" /><circle cx="394.0" cy="154.0" r="10.0" /><circle cx="298.0" cy="178.0" r="10.0" /><circle cx="346.0" cy="178.0" r="10.0" /><path d="M 0 194.0v 20.0h 12.0a 10.0 10.0, 0, 0, 0, 0 -20" transform="rotate(180.0,12.0,204.0)" /><rect x="24" y="194.0" width="24" height="20" /><rect x="48" y="194.0" width="24" height="20" /><rect x="72" y="194.0" width="24" height="20" /><path d="M 96 194.0v 20.0h 12.0a 10.0 10.0, 0, 0, 0, 0 -20" /><path d="M 144 194.0v 20.0h 12.0a 10.0 10.0, 0, 0, 0, 0 -20" transform="rotate(180.0,156.0,204.0)" /><rect x="168" y="194.0" width="24" height="20" /><rect x="192" y="194.0" width="24" height="20" /><rect x="216" y="194.0" width="24" height="20" /><path d="M 240 194.0v 20.0h 12.0a 10.0 10.0, 0, 0, 0, 0 -20" /><path d="M 288 194.0v 20.0h 12.0a 10.0 10.0, 0, 0, 0, 0 -20" transform="rotate(180.0,300.0,204.0)" /><rect x="312" y="194.0" width="24" height="20" /><rect x="336" y="194.0" width="24" height="20" /><rect x="360" y="194.0" width="24" height="20" /><rect x="384" y="194.0" width="24" height="20" /><path d="M 408 194.0v 20.0h 12.0a 10.0 10.0, 0, 0, 0, 0 -20" /><circle cx="466.0" cy="202.0" r="10.0" /><circle cx="514.0" cy="202.0" r="10.0" /><circle cx="562.0" cy="202.0" r="10.0" /><circle cx="34.0" cy="226.0" r="10.0" /><path d="M 96 218.0v 20.0h 12.0a 10.0 10.0, 0, 0, 0, 0 -20" transform="rotate(180.0,108.0,228.0)" /><path d="M 120 218.0v 20.0h 12.0a 10.0 10.0, 0, 0, 0, 0 -20" /><path d="M 192 218.0v 20.0h 12.0a 10.0 10.0, 0, 0, 0, 0 -20" transform="rotate(180.0,204.0,228.0)" /><path d="M 216 218.0v 20.0h 12.0a 10.0 10.0, 0, 0, 0, 0 -20" /><circle cx="322.0" cy="226.0" r="10.0" /><circle cx="418.0" cy="226.0" r="10.0" /><circle cx="514.0" cy="226.0" r="10.0" /><circle cx="562.0" cy="226.0" r="10.0" /><path d="M 24 242.0v 20.0h 12.0a 10.0 10.0, 0, 0, 0, 0 -20" transform="rotate(180.0,36.0,252.0)" /><path d="M 48 242.0v 20.0h 12.0a 10.0 10.0, 0, 0, 0, 0 -20" /><circle cx="106.0" cy="250.0" r="10.0" /><circle cx="154.0" cy="250.0" r="10.0" /><circle cx="226.0" cy="250.0" r="10.0" /><path d="M 264 242.0v 20.0h 12.0a 10.0 10.0, 0, 0, 0, 0 -20" transform="rotate(180.0,276.0,252.0)" /><path d="M 288 242.0v 20.0h 12.0a 10.0 10.0, 0, 0, 0, 0 -20" /><path d="M 336 242.0v 20.0h 12.0a 10.0 10.0, 0, 0, 0, 0 -20" transform="rotate(180.0,348.0,252.0)" /><path d="M 360 242.0v 20.0h 12.0a 10.0 10.0, 0, 0, 0, 0 -20" /><circle cx="442.0" cy="250.0" r="10.0" /><circle cx="490.0" cy="250.0" r="10.0" /><path d="M 528 242.0v 20.0h 12.0a 10.0 10.0, 0, 0, 0, 0 -20" transform="rotate(180.0,540.0,252.0)" /><rect x="552" y="242.0" width="24" height="20" /><path d="M 576 242.0v 20.0h 12.0a 10.0 10.0, 0, 0, 0, 0 -20" /><path d="M 24 266.0v 20.0h 12.0a 10.0 10.0, 0, 0, 0, 0 -20" transform="rotate(180.0,36.0,276.0)" /><path d="M 48 266.0v 20.0h 12.0a 10.0 10.0, 0, 0, 0, 0 -20" /><path d="M 96 266.0v 20.0h 12.0a 10.0 10.0, 0, 0, 0, 0 -20" transform="rotate(180.0,108.0,276.0)" /><path d="M 120 266.0v 20.0h 12.0a 10.0 10.0, 0, 0, 0, 0 -20" /><path d="M 192 266.0v 20.0h 12.0a 10.0 10.0, 0, 0, 0, 0 -20" transform="rotate(180.0,204.0,276.0)" /><rect x="216" y="266.0" width="24" height="20" /><rect x="240" y="266.0" width="24" height="20" /><path d="M 264 266.0v 20.0h 12.0a 10.0 10.0, 0, 0, 0, 0 -20" /><circle cx="370.0" cy="274.0" r="10.0" /><circle cx="466.0" cy="274.0" r="10.0" /><circle cx="514.0" cy="274.0" r="10.0" /><path d="M 552 266.0v 20.0h 12.0a 10.0 10.0, 0, 0, 0, 0 -20" transform="rotate(180.0,564.0,276.0)" /><path d="M 576 266.0v 20.0h 12.0a 10.0 10.0, 0, 0, 0, 0 -20" /><circle cx="10.0" cy="298.0" r="10.0" /><circle cx="106.0" cy="298.0" r="10.0" /><circle cx="154.0" cy="298.0" r="10.0" /><path d="M 192 290.0v 20.0h 12.0a 10.0 10.0, 0, 0, 0, 0 -20" transform="rotate(180.0,204.0,300.0)" /><path d="M 216 290.0v 20.0h 12.0a 10.0 10.0, 0, 0, 0, 0 -20" /><circle cx="274.0" cy="298.0" r="10.0" /><path d="M 312 290.0v 20.0h 12.0a 10.0 10.0, 0, 0, 0, 0 -20" transform="rotate(180.0,324.0,300.0)" /><rect x="336" y="290.0" width="24" height="20" /><rect x="360" y="290.0" width="24" height="20" /><path d="M 384 290.0v 20.0h 12.0a 10.0 10.0, 0, 0, 0, 0 -20" /><path d="M 432 290.0v 20.0h 12.0a 10.0 10.0, 0, 0, 0, 0 -20" transform="rotate(180.0,444.0,300.0)" /><rect x="456" y="290.0" width="24" height="20" /><path d="M 480 290.0v 20.0h 12.0a 10.0 10.0, 0, 0, 0, 0 -20" /><path d="M 528 290.0v 20.0h 12.0a 10.0 10.0, 0, 0, 0, 0 -20" transform="rotate(180.0,540.0,300.0)" /><path d="M 552 290.0v 20.0h 12.0a 10.0 10.0, 0, 0, 0, 0 -20" /><path d="M 0 314.0v 20.0h 12.0a 10.0 10.0, 0, 0, 0, 0 -20" transform="rotate(180.0,12.0,324.0)" /><path d="M 24 314.0v 20.0h 12.0a 10.0 10.0, 0, 0, 0, 0 -20" /><path d="M 72 314.0v 20.0h 12.0a 10.0 10.0, 0, 0, 0, 0 -20" transform="rotate(180.0,84.0,324.0)" /><rect x="96" y="314.0" width="24" height="20" /><path d="M 120 314.0v 20.0h 12.0a 10.0 10.0, 0, 0, 0, 0 -20" /><path d="M 168 314.0v 20.0h 12.0a 10.0 10.0, 0, 0, 0, 0 -20" transform="rotate(180.0,180.0,324.0)" /><path d="M 192 314.0v 20.0h 12.0a 10.0 10.0, 0, 0, 0, 0 -20" /><circle cx="250.0" cy="322.0" r="10.0" /><circle cx="298.0" cy="322.0" r="10.0" /><circle cx="346.0" cy="322.0" r="10.0" /><circle cx="418.0" cy="322.0" r="10.0" /><path d="M 504 314.0v 20.0h 12.0a 10.0 10.0, 0, 0, 0, 0 -20" transform="rotate(180.0,516.0,324.0)" /><path d="M 528 314.0v 20.0h 12.0a 10.0 10.0, 0, 0, 0, 0 -20" /><circle cx="10.0" cy="346.0" r="10.0" /><path d="M 72 338.0v 20.0h 12.0a 10.0 10.0, 0, 0, 0, 0 -20" transform="rotate(180.0,84.0,348.0)" /><rect x="96" y="338.0" width="24" height="20" /><rect x="120" y="338.0" width="24" height="20" /><rect x="144" y="338.0" width="24" height="20" /><path d="M 168 338.0v 20.0h 12.0a 10.0 10.0, 0, 0, 0, 0 -20" /><circle cx="226.0" cy="346.0" r="10.0" /><circle cx="322.0" cy="346.0" r="10.0" /><circle cx="370.0" cy="346.0" r="10.0" /><path d="M 432 338.0v 20.0h 12.0a 10.0 10.0, 0, 0, 0, 0 -20" transform="rotate(180.0,444.0,348.0)" /><path d="M 456 338.0v 20.0h 12.0a 10.0 10.0, 0, 0, 0, 0 -20" /><path d="M 504 338.0v 20.0h 12.0a 10.0 10.0, 0, 0, 0, 0 -20" transform="rotate(180.0,516.0,348.0)" /><rect x="528" y="338.0" width="24" height="20" /><rect x="552" y="338.0" width="24" height="20" /><path d="M 576 338.0v 20.0h 12.0a 10.0 10.0, 0, 0, 0, 0 -20" /><circle cx="10.0" cy="370.0" r="10.0" /><circle cx="82.0" cy="370.0" r="10.0" /><circle cx="130.0" cy="370.0" r="10.0" /><circle cx="178.0" cy="370.0" r="10.0" /><path d="M 216 362.0v 20.0h 12.0a 10.0 10.0, 0, 0, 0, 0 -20" transform="rotate(180.0,228.0,372.0)" /><path d="M 240 362.0v 20.0h 12.0a 10.0 10.0, 0, 0, 0, 0 -20" /><circle cx="298.0" cy="370.0" r="10.0" /><circle cx="346.0" cy="370.0" r="10.0" /><path d="M 384 362.0v 20.0h 12.0a 10.0 10.0, 0, 0, 0, 0 -20" transform="rotate(180.0,396.0,372.0)" /><rect x="408" y="362.0" width="24" height="20" /><path d="M 432 362.0v 20.0h 12.0a 10.0 10.0, 0, 0, 0, 0 -20" /><circle cx="514.0" cy="370.0" r="10.0" /><circle cx="562.0" cy="370.0" r="10.0" /><circle cx="10.0" cy="394.0" r="10.0" /><path d="M 48 386.0v 20.0h 12.0a 10.0 10.0, 0, 0, 0, 0 -20" transform="rotate(180.0,60.0,396.0)" /><path d="M 72 386.0v 20.0h 12.0a 10.0 10.0, 0, 0, 0, 0 -20" /><circle cx="154.0" cy="394.0" r="10.0" /><path d="M 192 386.0v 20.0h 12.0a 10.0 10.0, 0, 0, 0, 0 -20" transform="rotate(180.0,204.0,396.0)" /><rect x="216" y="386.0" width="24" height="20" /><path d="M 240 386.0v 20.0h 12.0a 10.0 10.0, 0, 0, 0, 0 -20" /><path d="M 288 386.0v 20.0h 12.0a 10.0 10.0, 0, 0, 0, 0 -20" transform="rotate(180.0,300.0,396.0)" /><rect x="312" y="386.0" width="24" height="20" /><rect x="336" y="386.0" width="24" height="20" /><rect x="360" y="386.0" width="24" height="20" /><rect x="384" y="386.0" width="24" height="20" /><rect x="408" y="386.0" width="24" height="20" /><rect x="432" y="386.0" width="24" height="20" /><rect x="456" y="386.0" width="24" height="20" /><rect x="480" y="386.0" width="24" height="20" /><rect x="504" y="386.0" width="24" height="20" /><path d="M 528 386.0v 20.0h 12.0a 10.0 10.0, 0, 0, 0, 0 -20" /><circle cx="586.0" cy="394.0" r="10.0" /><circle cx="202.0" cy="418.0" r="10.0" /><circle cx="394.0" cy="418.0" r="10.0" /><path d="M 480 410.0v 20.0h 12.0a 10.0 10.0, 0, 0, 0, 0 -20" transform="rotate(180.0,492.0,420.0)" /><rect x="504" y="410.0" width="24" height="20" /><rect x="528" y="410.0" width="24" height="20" /><path d="M 552 410.0v 20.0h 12.0a 10.0 10.0, 0, 0, 0, 0 -20" /><path d="M 192 434.0v 20.0h 12.0a 10.0 10.0, 0, 0, 0, 0 -20" transform="rotate(180.0,204.0,444.0)" /><rect x="216" y="434.0" width="24" height="20" /><rect x="240" y="434.0" width="24" height="20" /><rect x="264" y="434.0" width="24" height="20" /><path d="M 288 434.0v 20.0h 12.0a 10.0 10.0, 0, 0, 0, 0 -20" /><circle cx="346.0" cy="442.0" r="10.0" /><circle cx="394.0" cy="442.0" r="10.0" /><circle cx="442.0" cy="442.0" r="10.0" /><circle cx="490.0" cy="442.0" r="10.0" /><path d="M 528 434.0v 20.0h 12.0a 10.0 10.0, 0, 0, 0, 0 -20" transform="rotate(180.0,540.0,444.0)" /><rect x="552" y="434.0" width="24" height="20" /><path d="M 576 434.0v 20.0h 12.0a 10.0 10.0, 0, 0, 0, 0 -20" /><path d="M 240 458.0v 20.0h 12.0a 10.0 10.0, 0, 0, 0, 0 -20" transform="rotate(180.0,252.0,468.0)" /><path d="M 264 458.0v 20.0h 12.0a 10.0 10.0, 0, 0, 0, 0 -20" /><path d="M 336 458.0v 20.0h 12.0a 10.0 10.0, 0, 0, 0, 0 -20" transform="rotate(180.0,348.0,468.0)" /><rect x="360" y="458.0" width="24" height="20" /><path d="M 384 458.0v 20.0h 12.0a 10.0 10.0, 0, 0, 0, 0 -20" /><path d="M 480 458.0v 20.0h 12.0a 10.0 10.0, 0, 0, 0, 0 -20" transform="rotate(180.0,492.0,468.0)" /><path d="M 504 458.0v 20.0h 12.0a 10.0 10.0, 0, 0, 0, 0 -20" /><circle cx="202.0" cy="490.0" r="10.0" /><circle cx="274.0" cy="490.0" r="10.0" /><path d="M 360 482.0v 20.0h 12.0a 10.0 10.0, 0, 0, 0, 0 -20" transform="rotate(180.0,372.0,492.0)" /><rect x="384" y="482.0" width="24" height="20" /><rect x="408" y="482.0" width="24" height="20" /><rect x="432" y="482.0" width="24" height="20" /><rect x="456" y="482.0" width="24" height="20" /><path d="M 480 482.0v 20.0h 12.0a 10.0 10.0, 0, 0, 0, 0 -20" /><path d="M 528 482.0v 20.0h 12.0a 10.0 10.0, 0, 0, 0, 0 -20" transform="rotate(180.0,540.0,492.0)" /><rect x="552" y="482.0" width="24" height="20" /><path d="M 576 482.0v 20.0h 12.0a 10.0 10.0, 0, 0, 0, 0 -20" /><path d="M 192 506.0v 20.0h 12.0a 10.0 10.0, 0, 0, 0, 0 -20" transform="rotate(180.0,204.0,516.0)" /><rect x="216" y="506.0" width="24" height="20" /><path d="M 240 506.0v 20.0h 12.0a 10.0 10.0, 0, 0, 0, 0 -20" /><path d="M 288 506.0v 20.0h 12.0a 10.0 10.0, 0, 0, 0, 0 -20" transform="rotate(180.0,300.0,516.0)" /><path d="M 312 506.0v 20.0h 12.0a 10.0 10.0, 0, 0, 0, 0 -20" /><circle cx="370.0" cy="514.0" r="10.0" /><path d="M 432 506.0v 20.0h 12.0a 10.0 10.0, 0, 0, 0, 0 -20" transform="rotate(180.0,444.0,516.0)" /><rect x="456" y="506.0" width="24" height="20" /><rect x="480" y="506.0" width="24" height="20" /><path d="M 504 506.0v 20.0h 12.0a 10.0 10.0, 0, 0, 0, 0 -20" /><path d="M 552 506.0v 20.0h 12.0a 10.0 10.0, 0, 0, 0, 0 -20" transform="rotate(180.0,564.0,516.0)" /><path d="M 576 506.0v 20.0h 12.0a 10.0 10.0, 0, 0, 0, 0 -20" /><circle cx="202.0" cy="538.0" r="10.0" /><circle cx="250.0" cy="538.0" r="10.0" /><path d="M 312 530.0v 20.0h 12.0a 10.0 10.0, 0, 0, 0, 0 -20" transform="rotate(180.0,324.0,540.0)" /><path d="M 336 530.0v 20.0h 12.0a 10.0 10.0, 0, 0, 0, 0 -20" /><circle cx="418.0" cy="538.0" r="10.0" /><circle cx="538.0" cy="538.0" r="10.0" /><circle cx="586.0" cy="538.0" r="10.0" /><path d="M 192 554.0v 20.0h 12.0a 10.0 10.0, 0, 0, 0, 0 -20" transform="rotate(180.0,204.0,564.0)" /><rect x="216" y="554.0" width="24" height="20" /><path d="M 240 554.0v 20.0h 12.0a 10.0 10.0, 0, 0, 0, 0 -20" /><path d="M 288 554.0v 20.0h 12.0a 10.0 10.0, 0, 0, 0, 0 -20" transform="rotate(180.0,300.0,564.0)" /><path d="M 312 554.0v 20.0h 12.0a 10.0 10.0, 0, 0, 0, 0 -20" /><circle cx="394.0" cy="562.0" r="10.0" /><circle cx="442.0" cy="562.0" r="10.0" /><circle cx="514.0" cy="562.0" r="10.0" /><circle cx="586.0" cy="562.0" r="10.0" /><path d="M 192 578.0v 20.0h 12.0a 10.0 10.0, 0, 0, 0, 0 -20" transform="rotate(180.0,204.0,588.0)" /><rect x="216" y="578.0" width="24" height="20" /><path d="M 240 578.0v 20.0h 12.0a 10.0 10.0, 0, 0, 0, 0 -20" /><circle cx="298.0" cy="586.0" r="10.0" /><path d="M 336 578.0v 20.0h 12.0a 10.0 10.0, 0, 0, 0, 0 -20" transform="rotate(180.0,348.0,588.0)" /><path d="M 360 578.0v 20.0h 12.0a 10.0 10.0, 0, 0, 0, 0 -20" /><circle cx="442.0" cy="586.0" r="10.0" /><circle cx="490.0" cy="586.0" r="10.0" /><path d="M 528 578.0v 20.0h 12.0a 10.0 10.0, 0, 0, 0, 0 -20" transform="rotate(180.0,540.0,588.0)" /><rect x="552" y="578.0" width="24" height="20" /><path d="M 576 578.0v 20.0h 12.0a 10.0 10.0, 0, 0, 0, 0 -20" /> </g><g > <path d="M132.0 24a12 12 90 0112 12v96a12 12 90 01-12 12h-96a12 12 90 01-12-12v-96a12 12 90 0112-12h96m0-24h-108q-24 0-24 24v120q0 24 24 24h120q24 0 24-24v-120q0-24-24-24zm-84 54v60a6 6 90 006 6h60a6 6 90 006-6v-60a6 6 90 00-6-6h-60a6 6 90 00-6 6" fill="#000000" fill-rule="evenodd" /><path d="M564.0 24a12 12 90 0112 12v96a12 12 90 01-12 12h-96a12 12 90 01-12-12v-96a12 12 90 0112-12h96m0-24h-108q-24 0-24 24v120q0 24 24 24h120q24 0 24-24v-120q0-24-24-24zm-84 54v60a6 6 90 006 6h60a6 6 90 006-6v-60a6 6 90 00-6-6h-60a6 6 90 00-6 6" fill="#000000" fill-rule="evenodd" /><path d="M132.0 456a12 12 90 0112 12v96a12 12 90 01-12 12h-96a12 12 90 01-12-12v-96a12 12 90 0112-12h96m0-24h-108q-24 0-24 24v120q0 24 24 24h120q24 0 24-24v-120q0-24-24-24zm-84 54v60a6 6 90 006 6h60a6 6 90 006-6v-60a6 6 90 00-6-6h-60a6 6 90 00-6 6" fill="#000000" fill-rule="evenodd" /> </g> </g><g /> </svg>