<svg width="504" height="504" viewBox="0 0 504 504" xmlns="http://www.w3.org/2000/svg" xmlns:xlink="http://www.w3.org/1999/xlink" > <defs > <linearGradient id="dots-fill" > <stop offset="0%" stop-color="#573697" /><stop offset="33%" stop-color="#933F99" /><stop offset="66%" stop-color="#E88C5D" /> </linearGradient><mask id="dots-mask" > <g fill="white" > <circle cx="274.0" cy="10.0" r="10.0" /><path d="M 288 2.0v 20.0h 12.0a 10.0 10.0, 0, 0, 0, 0 -20" transform="rotate(-90.0,300.0,12.0)" /><path d="M 240 26.0v 20.0h 12.0a 10.0 10.0, 0, 0, 0, 0 -20" transform="rotate(-90.0,252.0,36.0)" /><rect x="290.0" y="24" width="20" height="24" /><rect x="242.0" y="48" width="20" height="24" /><path d="M 264 50.0v 20.0h 12.0a 10.0 10.0, 0, 0, 0, 0 -20" transform="rotate(-90.0,276.0,60.0)" /><rect x="290.0" y="48" width="20" height="24" /><path d="M 192 74.0v 20.0h 12.0a 10.0 10.0, 0, 0, 0, 0 -20" transform="rotate(-90.0,204.0,84.0)" /><path d="M 240 74.0v 20.0h 12.0a 10.0 10.0, 0, 0, 0, 0 -20" transform="rotate(90.0,252.0,84.0)" /><rect x="266.0" y="72" width="20" height="24" /><path d="M 288 74.0v 20.0h 12.0a 10.0 10.0, 0, 0, 0, 0 -20" transform="rotate(90.0,300.0,84.0)" /><path d="M 192 98.0v 20.0h 12.0a 10.0 10.0, 0, 0, 0, 0 -20" transform="rotate(90.0,204.0,108.0)" /><path d="M 216 98.0v 20.0h 12.0a 10.0 10.0, 0, 0, 0, 0 -20" transform="rotate(-90.0,228.0,108.0)" /><path d="M 264 98.0v 20.0h 12.0a 10.0 10.0, 0, 0, 0, 0 -20" transform="rotate(90.0,276.0,108.0)" /><path d="M 216 122.0v 20.0h 12.0a 10.0 10.0, 0, 0, 0, 0 -20" transform="rotate(90.0,228.0,132.0)" /><path d="M 288 122.0v 20.0h 12.0a 10.0 10.0, 0, 0, 0, 0 -20" transform="rotate(-90.0,300.0,132.0)" /><circle cx="202.0" cy="154.0" r="10.0" /><circle cx="250.0" cy="154.0" r="10.0" /><path d="M 288 146.0v 20.0h 12.0a 10.0 10.0, 0, 0, 0, 0 -20" transform="rotate(90.0,300.0,156.0)" /><path d="M 264 170.0v 20.0h 12.0a 10.0 10.0, 0, 0, 0, 0 -20" transform="rotate(-90.0,276.0,180.0)" /><circle cx="10.0" cy="202.0" r="10.0" /><circle cx="34.0" cy="202.0" r="10.0" /><circle cx="130.0" cy="202.0" r="10.0" /><circle cx="154.0" cy="202.0" r="10.0" /><path d="M 168 194.0v 20.0h 12.0a 10.0 10.0, 0, 0, 0, 0 -20" transform="rotate(-90.0,180.0,204.0)" /><rect x="266.0" y="192" width="20" height="24" /><circle cx="298.0" cy="202.0" r="10.0" /><circle cx="394.0" cy="202.0" r="10.0" /><path d="M 408 194.0v 20.0h 12.0a 10.0 10.0, 0, 0, 0, 0 -20" transform="rotate(-90.0,420.0,204.0)" /><circle cx="58.0" cy="226.0" r="10.0" /><path d="M 72 218.0v 20.0h 12.0a 10.0 10.0, 0, 0, 0, 0 -20" transform="rotate(-90.0,84.0,228.0)" /><rect x="170.0" y="216" width="20" height="24" /><path d="M 192 218.0v 20.0h 12.0a 10.0 10.0, 0, 0, 0, 0 -20" transform="rotate(-90.0,204.0,228.0)" /><circle cx="226.0" cy="226.0" r="10.0" /><path d="M 264 218.0v 20.0h 12.0a 10.0 10.0, 0, 0, 0, 0 -20" transform="rotate(90.0,276.0,228.0)" /><path d="M 312 218.0v 20.0h 12.0a 10.0 10.0, 0, 0, 0, 0 -20" transform="rotate(-90.0,324.0,228.0)" /><circle cx="346.0" cy="226.0" r="10.0" /><path d="M 360 218.0v 20.0h 12.0a 10.0 10.0, 0, 0, 0, 0 -20" transform="rotate(-90.0,372.0,228.0)" /><rect x="410.0" y="216" width="20" height="24" /><path d="M 432 218.0v 20.0h 12.0a 10.0 10.0, 0, 0, 0, 0 -20" transform="rotate(-90.0,444.0,228.0)" /><rect x="74.0" y="240" width="20" height="24" /><circle cx="106.0" cy="250.0" r="10.0" /><circle cx="130.0" cy="250.0" r="10.0" /><circle cx="154.0" cy="250.0" r="10.0" /><rect x="170.0" y="240" width="20" height="24" /><rect x="194.0" y="240" width="20" height="24" /><path d="M 288 242.0v 20.0h 12.0a 10.0 10.0, 0, 0, 0, 0 -20" transform="rotate(-90.0,300.0,252.0)" /><path d="M 312 242.0v 20.0h 12.0a 10.0 10.0, 0, 0, 0, 0 -20" transform="rotate(90.0,324.0,252.0)" /><rect x="362.0" y="240" width="20" height="24" /><rect x="410.0" y="240" width="20" height="24" /><rect x="434.0" y="240" width="20" height="24" /><circle cx="466.0" cy="250.0" r="10.0" /><circle cx="10.0" cy="274.0" r="10.0" /><path d="M 24 266.0v 20.0h 12.0a 10.0 10.0, 0, 0, 0, 0 -20" transform="rotate(-90.0,36.0,276.0)" /><path d="M 72 266.0v 20.0h 12.0a 10.0 10.0, 0, 0, 0, 0 -20" transform="rotate(90.0,84.0,276.0)" /><path d="M 168 266.0v 20.0h 12.0a 10.0 10.0, 0, 0, 0, 0 -20" transform="rotate(90.0,180.0,276.0)" /><path d="M 192 266.0v 20.0h 12.0a 10.0 10.0, 0, 0, 0, 0 -20" transform="rotate(90.0,204.0,276.0)" /><path d="M 216 266.0v 20.0h 12.0a 10.0 10.0, 0, 0, 0, 0 -20" transform="rotate(-90.0,228.0,276.0)" /><circle cx="250.0" cy="274.0" r="10.0" /><path d="M 288 266.0v 20.0h 12.0a 10.0 10.0, 0, 0, 0, 0 -20" transform="rotate(90.0,300.0,276.0)" /><rect x="362.0" y="264" width="20" height="24" /><rect x="410.0" y="264" width="20" height="24" /><path d="M 432 266.0v 20.0h 12.0a 10.0 10.0, 0, 0, 0, 0 -20" transform="rotate(90.0,444.0,276.0)" /><path d="M 24 290.0v 20.0h 12.0a 10.0 10.0, 0, 0, 0, 0 -20" transform="rotate(90.0,36.0,300.0)" /><circle cx="58.0" cy="298.0" r="10.0" /><circle cx="154.0" cy="298.0" r="10.0" /><rect x="218.0" y="288" width="20" height="24" /><path d="M 264 290.0v 20.0h 12.0a 10.0 10.0, 0, 0, 0, 0 -20" transform="rotate(-90.0,276.0,300.0)" /><rect x="362.0" y="288" width="20" height="24" /><rect x="410.0" y="288" width="20" height="24" /><path d="M 480 290.0v 20.0h 12.0a 10.0 10.0, 0, 0, 0, 0 -20" transform="rotate(-90.0,492.0,300.0)" /><path d="M 192 314.0v 20.0h 12.0a 10.0 10.0, 0, 0, 0, 0 -20" transform="rotate(-90.0,204.0,324.0)" /><rect x="218.0" y="312" width="20" height="24" /><path d="M 264 314.0v 20.0h 12.0a 10.0 10.0, 0, 0, 0, 0 -20" transform="rotate(90.0,276.0,324.0)" /><circle cx="346.0" cy="322.0" r="10.0" /><rect x="362.0" y="312" width="20" height="24" /><circle cx="394.0" cy="322.0" r="10.0" /><path d="M 408 314.0v 20.0h 12.0a 10.0 10.0, 0, 0, 0, 0 -20" transform="rotate(90.0,420.0,324.0)" /><path d="M 456 314.0v 20.0h 12.0a 10.0 10.0, 0, 0, 0, 0 -20" transform="rotate(-90.0,468.0,324.0)" /><path d="M 480 314.0v 20.0h 12.0a 10.0 10.0, 0, 0, 0, 0 -20" transform="rotate(90.0,492.0,324.0)" /><rect x="194.0" y="336" width="20" height="24" /><path d="M 216 338.0v 20.0h 12.0a 10.0 10.0, 0, 0, 0, 0 -20" transform="rotate(90.0,228.0,348.0)" /><path d="M 288 338.0v 20.0h 12.0a 10.0 10.0, 0, 0, 0, 0 -20" transform="rotate(-90.0,300.0,348.0)" /><rect x="362.0" y="336" width="20" height="24" /><path d="M 432 338.0v 20.0h 12.0a 10.0 10.0, 0, 0, 0, 0 -20" transform="rotate(-90.0,444.0,348.0)" /><rect x="458.0" y="336" width="20" height="24" /><path d="M 192 362.0v 20.0h 12.0a 10.0 10.0, 0, 0, 0, 0 -20" transform="rotate(90.0,204.0,372.0)" /><circle cx="250.0" cy="370.0" r="10.0" /><circle cx="274.0" cy="370.0" r="10.0" /><path d="M 288 362.0v 20.0h 12.0a 10.0 10.0, 0, 0, 0, 0 -20" transform="rotate(90.0,300.0,372.0)" /><path d="M 336 362.0v 20.0h 12.0a 10.0 10.0, 0, 0, 0, 0 -20" transform="rotate(-90.0,348.0,372.0)" /><rect x="362.0" y="360" width="20" height="24" /><path d="M 432 362.0v 20.0h 12.0a 10.0 10.0, 0, 0, 0, 0 -20" transform="rotate(90.0,444.0,372.0)" /><rect x="458.0" y="360" width="20" height="24" /><circle cx="226.0" cy="394.0" r="10.0" /><path d="M 312 386.0v 20.0h 12.0a 10.0 10.0, 0, 0, 0, 0 -20" transform="rotate(-90.0,324.0,396.0)" /><path d="M 336 386.0v 20.0h 12.0a 10.0 10.0, 0, 0, 0, 0 -20" transform="rotate(90.0,348.0,396.0)" /><rect x="362.0" y="384" width="20" height="24" /><circle cx="418.0" cy="394.0" r="10.0" /><path d="M 456 386.0v 20.0h 12.0a 10.0 10.0, 0, 0, 0, 0 -20" transform="rotate(90.0,468.0,396.0)" /><circle cx="490.0" cy="394.0" r="10.0" /><path d="M 264 410.0v 20.0h 12.0a 10.0 10.0, 0, 0, 0, 0 -20" transform="rotate(-90.0,276.0,420.0)" /><path d="M 312 410.0v 20.0h 12.0a 10.0 10.0, 0, 0, 0, 0 -20" transform="rotate(90.0,324.0,420.0)" /><rect x="362.0" y="408" width="20" height="24" /><path d="M 384 410.0v 20.0h 12.0a 10.0 10.0, 0, 0, 0, 0 -20" transform="rotate(-90.0,396.0,420.0)" /><circle cx="250.0" cy="442.0" r="10.0" /><path d="M 264 434.0v 20.0h 12.0a 10.0 10.0, 0, 0, 0, 0 -20" transform="rotate(90.0,276.0,444.0)" /><path d="M 288 434.0v 20.0h 12.0a 10.0 10.0, 0, 0, 0, 0 -20" transform="rotate(-90.0,300.0,444.0)" /><rect x="362.0" y="432" width="20" height="24" /><rect x="386.0" y="432" width="20" height="24" /><circle cx="418.0" cy="442.0" r="10.0" /><circle cx="466.0" cy="442.0" r="10.0" /><circle cx="490.0" cy="442.0" r="10.0" /><path d="M 192 458.0v 20.0h 12.0a 10.0 10.0, 0, 0, 0, 0 -20" transform="rotate(-90.0,204.0,468.0)" /><rect x="290.0" y="456" width="20" height="24" /><rect x="362.0" y="456" width="20" height="24" /><rect x="386.0" y="456" width="20" height="24" /><circle cx="442.0" cy="466.0" r="10.0" /><path d="M 192 482.0v 20.0h 12.0a 10.0 10.0, 0, 0, 0, 0 -20" transform="rotate(90.0,204.0,492.0)" /><circle cx="226.0" cy="490.0" r="10.0" /><circle cx="274.0" cy="490.0" r="10.0" /><path d="M 288 482.0v 20.0h 12.0a 10.0 10.0, 0, 0, 0, 0 -20" transform="rotate(90.0,300.0,492.0)" /><circle cx="322.0" cy="490.0" r="10.0" /><circle cx="346.0" cy="490.0" r="10.0" /><path d="M 360 482.0v 20.0h 12.0a 10.0 10.0, 0, 0, 0, 0 -20" transform="rotate(90.0,372.0,492.0)" /><path d="M 384 482.0v 20.0h 12.0a 10.0 10.0, 0, 0, 0, 0 -20" transform="rotate(90.0,396.0,492.0)" /><circle cx="466.0" cy="490.0" r="10.0" /> </g> </mask><linearGradient id="tl-eye-fill" > <stop offset="0%" stop-color="#573697" /><stop offset="33%" stop-color="#933F99" /><stop offset="66%" stop-color="#E88C5D" /> </linearGradient><mask id="tl-eye-mask" > <path d="M132.0 24a12 12 90 0112 12v96a12 12 90 01-12 12h-96a12 12 90 01-12-12v-96a12 12 90 0112-12h96m0-24h-108q-24 0-24 24v120q0 24 24 24h120q24 0 24-24v-120q0-24-24-24zm-84 54v60a6 6 90 006 6h60a6 6 90 006-6v-60a6 6 90 00-6-6h-60a6 6 90 00-6 6" fill="white" fill-rule="evenodd" /> </mask><linearGradient id="bl-eye-fill" > <stop offset="0%" stop-color="#573697" /><stop offset="33%" stop-color="#933F99" /><stop offset="66%" stop-color="#E88C5D" /> </linearGradient><mask id="bl-eye-mask" > <path d="M132.0 360a12 12 90 0112 12v96a12 12 90 01-12 12h-96a12 12 90 01-12-12v-96a12 12 90 0112-12h96m0-24h-108q-24 0-24 24v120q0 24 24 24h120q24 0 24-24v-120q0-24-24-24zm-84 54v60a6 6 90 006 6h60a6 6 90 006-6v-60a6 6 90 00-6-6h-60a6 6 90 00-6 6" fill="white" fill-rule="evenodd" /> </mask> </defs><g > <g /><g > <path d="M468.0 24a12 12 90 0112 12v96a12 12 90 01-12 12h-96a12 12 90 01-12-12v-96a12 12 90 0112-12h96m0-24h-108q-24 0-24 24v120q0 24 24 24h120q24 0 24-24v-120q0-24-24-24zm-84 54v60a6 6 90 006 6h60a6 6 90 006-6v-60a6 6 90 00-6-6h-60a6 6 90 00-6 6" fill="#573697" fill-rule="evenodd" /> </g> </g><g > <rect x="0" y="0" width="504" height="504" mask="url(#dots-mask)" fill="url(#dots-fill)" /><rect x="0" y="0" width="504" height="504" mask="url(#tl-eye-mask)" fill="url(#tl-eye-fill)" /><rect x="0" y="0" width="504" height="504" mask="url(#bl-eye-mask)" fill="url(#bl-eye-fill)" /> </g> </svg>