<svg width="504" height="504" viewBox="0 0 504 504" xmlns="http://www.w3.org/2000/svg" xmlns:xlink="http://www.w3.org/1999/xlink" > <defs /><g > <g fill="#608090" > <path d="M 204.0 0h -0.0 q -12 0 -12 12v 0 q 0 12 12 12h 12 v -12 v -12 z" /><rect x="216" y="0" width="24" height="24" /><path d="M 252.0 0h -12.0 v12v 12 h 12h 12 v -12 v -12 z" /><rect x="264" y="0" width="24" height="24" /><path d="M 300.0 0h -12.0 v12v 12 h 12h 0 q 12 0 12 -12v -0 q 0 -12 -12 -12z" /><path d="M 228.0 24h -12.0 v12v 12 h 12h 12 v -12 v -12 z" /><path d="M 276.0 24h -12.0 v12v 0 q 0 12 12 12h 0 q 12 0 12 -12v -12 z" /><rect x="216" y="48" width="24" height="24" /><path d="M 252.0 48h -12.0 v12v 12 h 12h 12 v -12 v -0 q 0 -12 -12 -12z" /><path d="M 228.0 72h -12.0 v12v 0 q 0 12 12 12h 12 v -12 v -12 z" /><rect x="240" y="72" width="24" height="24" /><path d="M 276.0 72h -12.0 v12v 12 h 12h 0 q 12 0 12 -12v -0 q 0 -12 -12 -12z" /><path d="M 252.0 96h -12.0 v12v 0 q 0 12 12 12h 0 q 12 0 12 -12v -12 z" /><path d="M 300.0 96h -0.0 q -12 0 -12 12v 12 h 12h 12 v -12 v -0 q 0 -12 -12 -12z" /><path d="M 276.0 120h -0.0 q -12 0 -12 12v 0 q 0 12 12 12h 12 v -12 v -12 z" /><rect x="288" y="120" width="24" height="24" /><path d="M 204.0 144h -0.0 q -12 0 -12 12v 12 h 12h 12 v -12 v -0 q 0 -12 -12 -12z" /><path d="M 252.0 144h -0.0 q -12 0 -12 12v 12 h 12h 12 v -12 v -0 q 0 -12 -12 -12z" /><path d="M 300.0 144h -12.0 v12v 12 h 12h 12 v -12 v -12 z" /><path d="M 204.0 168h -12.0 v12v 0 q 0 12 12 12h 12 v -12 v -12 z" /><rect x="216" y="168" width="24" height="24" /><rect x="240" y="168" width="24" height="24" /><path d="M 276.0 168h -12.0 v12v 12 h 12h 12 v -12 v -12 z" /><rect x="288" y="168" width="24" height="24" /><path d="M 12.0 192h -0.0 q -12 0 -12 12v 0 q 0 12 12 12h 12 v -12 v -12 z" /><path d="M 36.0 192h -12.0 v12v 12 h 12h 0 q 12 0 12 -12v -0 q 0 -12 -12 -12z" /><path d="M 84.0 192h -0.0 q -12 0 -12 12v 12 h 12h 12 v -12 v -12 z" /><path d="M 108.0 192h -12.0 v12v 12 h 12h 12 v -12 v -0 q 0 -12 -12 -12z" /><path d="M 156.0 192h -0.0 q -12 0 -12 12v 0 q 0 12 12 12h 0 q 12 0 12 -12v -0 q 0 -12 -12 -12z" /><path d="M 228.0 192h -12.0 v12v 0 q 0 12 12 12h 12 v -12 v -12 z" /><path d="M 252.0 192h -12.0 v12v 12 h 12h 0 q 12 0 12 -12v -12 z" /><path d="M 300.0 192h -12.0 v12v 12 h 12h 12 v -12 v -12 z" /><path d="M 348.0 192h -0.0 q -12 0 -12 12v 12 h 12h 12 v -12 v -0 q 0 -12 -12 -12z" /><path d="M 492.0 192h -0.0 q -12 0 -12 12v 0 q 0 12 12 12h 0 q 12 0 12 -12v -0 q 0 -12 -12 -12z" /><path d="M 84.0 216h -12.0 v12v 0 q 0 12 12 12h 12 v -12 v -12 z" /><rect x="96" y="216" width="24" height="24" /><path d="M 132.0 216h -12.0 v12v 12 h 12h 0 q 12 0 12 -12v -0 q 0 -12 -12 -12z" /><path d="M 300.0 216h -12.0 v12v 0 q 0 12 12 12h 0 q 12 0 12 -12v -12 z" /><path d="M 348.0 216h -12.0 v12v 12 h 12h 12 v -12 v -12 z" /><path d="M 396.0 216h -0.0 q -12 0 -12 12v 12 h 12h 12 v -12 v -12 z" /><path d="M 420.0 216h -12.0 v12v 12 h 12h 12 v -12 v -0 q 0 -12 -12 -12z" /><path d="M 36.0 240h -0.0 q -12 0 -12 12v 0 q 0 12 12 12h 0 q 12 0 12 -12v -0 q 0 -12 -12 -12z" /><path d="M 156.0 240h -0.0 q -12 0 -12 12v 0 q 0 12 12 12h 0 q 12 0 12 -12v -0 q 0 -12 -12 -12z" /><path d="M 204.0 240h -0.0 q -12 0 -12 12v 12 h 12h 12 v -12 v -0 q 0 -12 -12 -12z" /><path d="M 252.0 240h -0.0 q -12 0 -12 12v 12 h 12h 12 v -12 v -0 q 0 -12 -12 -12z" /><path d="M 324.0 240h -0.0 q -12 0 -12 12v 0 q 0 12 12 12h 12 v -12 v -12 z" /><path d="M 348.0 240h -12.0 v12v 12 h 12h 0 q 12 0 12 -12v -12 z" /><path d="M 396.0 240h -12.0 v12v 0 q 0 12 12 12h 12 v -12 v -12 z" /><rect x="408" y="240" width="24" height="24" /><rect x="432" y="240" width="24" height="24" /><path d="M 468.0 240h -12.0 v12v 12 h 12h 12 v -12 v -12 z" /><path d="M 492.0 240h -12.0 v12v 12 h 12h 12 v -12 v -0 q 0 -12 -12 -12z" /><path d="M 60.0 264h -0.0 q -12 0 -12 12v 12 h 12h 12 v -12 v -12 z" /><path d="M 84.0 264h -12.0 v12v 12 h 12h 0 q 12 0 12 -12v -0 q 0 -12 -12 -12z" /><path d="M 204.0 264h -12.0 v12v 0 q 0 12 12 12h 12 v -12 v -12 z" /><path d="M 228.0 264h -12.0 v12v 12 h 12h 12 v -12 v -12 z" /><rect x="240" y="264" width="24" height="24" /><path d="M 276.0 264h -12.0 v12v 12 h 12h 0 q 12 0 12 -12v -0 q 0 -12 -12 -12z" /><path d="M 444.0 264h -12.0 v12v 0 q 0 12 12 12h 0 q 12 0 12 -12v -12 z" /><path d="M 492.0 264h -12.0 v12v 12 h 12h 12 v -12 v -12 z" /><path d="M 60.0 288h -12.0 v12v 0 q 0 12 12 12h 0 q 12 0 12 -12v -12 z" /><path d="M 108.0 288h -0.0 q -12 0 -12 12v 0 q 0 12 12 12h 12 v -12 v -12 z" /><path d="M 132.0 288h -12.0 v12v 12 h 12h 12 v -12 v -12 z" /><path d="M 156.0 288h -12.0 v12v 12 h 12h 0 q 12 0 12 -12v -0 q 0 -12 -12 -12z" /><path d="M 252.0 288h -12.0 v12v 0 q 0 12 12 12h 0 q 12 0 12 -12v -12 z" /><path d="M 348.0 288h -0.0 q -12 0 -12 12v 0 q 0 12 12 12h 0 q 12 0 12 -12v -0 q 0 -12 -12 -12z" /><path d="M 468.0 288h -0.0 q -12 0 -12 12v 12 h 12h 12 v -12 v -12 z" /><path d="M 492.0 288h -12.0 v12v 12 h 12h 0 q 12 0 12 -12v -12 z" /><path d="M 204.0 312h -0.0 q -12 0 -12 12v 0 q 0 12 12 12h 0 q 12 0 12 -12v -0 q 0 -12 -12 -12z" /><path d="M 276.0 312h -0.0 q -12 0 -12 12v 0 q 0 12 12 12h 12 v -12 v -12 z" /><path d="M 300.0 312h -12.0 v12v 12 h 12h 12 v -12 v -0 q 0 -12 -12 -12z" /><path d="M 372.0 312h -0.0 q -12 0 -12 12v 12 h 12h 12 v -12 v -0 q 0 -12 -12 -12z" /><path d="M 420.0 312h -0.0 q -12 0 -12 12v 12 h 12h 12 v -12 v -12 z" /><rect x="432" y="312" width="24" height="24" /><path d="M 468.0 312h -12.0 v12v 12 h 12h 0 q 12 0 12 -12v -12 z" /><path d="M 228.0 336h -0.0 q -12 0 -12 12v 12 h 12h 12 v -12 v -12 z" /><path d="M 252.0 336h -12.0 v12v 12 h 12h 0 q 12 0 12 -12v -0 q 0 -12 -12 -12z" /><rect x="288" y="336" width="24" height="24" /><rect x="312" y="336" width="24" height="24" /><path d="M 348.0 336h -12.0 v12v 12 h 12h 12 v -12 v -12 z" /><rect x="360" y="336" width="24" height="24" /><rect x="384" y="336" width="24" height="24" /><rect x="408" y="336" width="24" height="24" /><rect x="432" y="336" width="24" height="24" /><path d="M 228.0 360h -12.0 v12v 12 h 12h 12 v -12 v -12 z" /><path d="M 276.0 360h -0.0 q -12 0 -12 12v 12 h 12h 12 v -12 v -12 z" /><rect x="288" y="360" width="24" height="24" /><path d="M 324.0 360h -12.0 v12v 12 h 12h 0 q 12 0 12 -12v -12 z" /><rect x="360" y="360" width="24" height="24" /><rect x="384" y="360" width="24" height="24" /><rect x="408" y="360" width="24" height="24" /><path d="M 444.0 360h -12.0 v12v 12 h 12h 0 q 12 0 12 -12v -12 z" /><path d="M 492.0 360h -0.0 q -12 0 -12 12v 12 h 12h 12 v -12 v -0 q 0 -12 -12 -12z" /><path d="M 204.0 384h -0.0 q -12 0 -12 12v 12 h 12h 12 v -12 v -12 z" /><rect x="216" y="384" width="24" height="24" /><rect x="240" y="384" width="24" height="24" /><rect x="264" y="384" width="24" height="24" /><rect x="288" y="384" width="24" height="24" /><path d="M 348.0 384h -0.0 q -12 0 -12 12v 0 q 0 12 12 12h 12 v -12 v -12 z" /><path d="M 372.0 384h -12.0 v12v 12 h 12h 0 q 12 0 12 -12v -12 z" /><path d="M 420.0 384h -12.0 v12v 0 q 0 12 12 12h 0 q 12 0 12 -12v -12 z" /><path d="M 468.0 384h -0.0 q -12 0 -12 12v 0 q 0 12 12 12h 12 v -12 v -12 z" /><path d="M 492.0 384h -12.0 v12v 12 h 12h 0 q 12 0 12 -12v -12 z" /><path d="M 204.0 408h -12.0 v12v 0 q 0 12 12 12h 0 q 12 0 12 -12v -12 z" /><path d="M 252.0 408h -12.0 v12v 0 q 0 12 12 12h 12 v -12 v -12 z" /><rect x="264" y="408" width="24" height="24" /><path d="M 300.0 408h -12.0 v12v 12 h 12h 0 q 12 0 12 -12v -12 z" /><path d="M 396.0 408h -0.0 q -12 0 -12 12v 0 q 0 12 12 12h 0 q 12 0 12 -12v -0 q 0 -12 -12 -12z" /><path d="M 444.0 408h -0.0 q -12 0 -12 12v 12 h 12h 12 v -12 v -0 q 0 -12 -12 -12z" /><path d="M 348.0 432h -0.0 q -12 0 -12 12v 12 h 12h 12 v -12 v -0 q 0 -12 -12 -12z" /><rect x="432" y="432" width="24" height="24" /><rect x="456" y="432" width="24" height="24" /><path d="M 492.0 432h -12.0 v12v 12 h 12h 12 v -12 v -0 q 0 -12 -12 -12z" /><path d="M 204.0 456h -0.0 q -12 0 -12 12v 12 h 12h 12 v -12 v -0 q 0 -12 -12 -12z" /><path d="M 324.0 456h -0.0 q -12 0 -12 12v 0 q 0 12 12 12h 12 v -12 v -12 z" /><path d="M 348.0 456h -12.0 v12v 12 h 12h 0 q 12 0 12 -12v -12 z" /><path d="M 396.0 456h -0.0 q -12 0 -12 12v 0 q 0 12 12 12h 0 q 12 0 12 -12v -0 q 0 -12 -12 -12z" /><rect x="432" y="456" width="24" height="24" /><rect x="456" y="456" width="24" height="24" /><path d="M 492.0 456h -12.0 v12v 12 h 12h 0 q 12 0 12 -12v -12 z" /><path d="M 204.0 480h -12.0 v12v 0 q 0 12 12 12h 12 v -12 v -12 z" /><path d="M 228.0 480h -12.0 v12v 12 h 12h 12 v -12 v -12 z" /><path d="M 252.0 480h -12.0 v12v 12 h 12h 12 v -12 v -12 z" /><path d="M 276.0 480h -12.0 v12v 12 h 12h 0 q 12 0 12 -12v -0 q 0 -12 -12 -12z" /><path d="M 444.0 480h -12.0 v12v 0 q 0 12 12 12h 0 q 12 0 12 -12v -12 z" /> </g><g > <path d="M132.0 24a12 12 90 0112 12v96a12 12 90 01-12 12h-96a12 12 90 01-12-12v-96a12 12 90 0112-12h96m0-24h-108q-24 0-24 24v120q0 24 24 24h120q24 0 24-24v-120q0-24-24-24zm-84 54v60a6 6 90 006 6h60a6 6 90 006-6v-60a6 6 90 00-6-6h-60a6 6 90 00-6 6" fill="#20E0F0" fill-rule="evenodd" /><path d="M468.0 24a12 12 90 0112 12v96a12 12 90 01-12 12h-96a12 12 90 01-12-12v-96a12 12 90 0112-12h96m0-24h-108q-24 0-24 24v120q0 24 24 24h120q24 0 24-24v-120q0-24-24-24zm-84 54v60a6 6 90 006 6h60a6 6 90 006-6v-60a6 6 90 00-6-6h-60a6 6 90 00-6 6" fill="#20E0F0" fill-rule="evenodd" /><path d="M132.0 360a12 12 90 0112 12v96a12 12 90 01-12 12h-96a12 12 90 01-12-12v-96a12 12 90 0112-12h96m0-24h-108q-24 0-24 24v120q0 24 24 24h120q24 0 24-24v-120q0-24-24-24zm-84 54v60a6 6 90 006 6h60a6 6 90 006-6v-60a6 6 90 00-6-6h-60a6 6 90 00-6 6" fill="#20E0F0" fill-rule="evenodd" /> </g> </g><g /> </svg>