<svg width="504" height="504" viewBox="0 0 504 504" xmlns="http://www.w3.org/2000/svg" xmlns:xlink="http://www.w3.org/1999/xlink" > <defs /><g > <g > <circle cx="250.0" cy="10.0" r="10.0" fill="#C45508" /><circle cx="202.0" cy="34.0" r="10.0" fill="#F07030" /><path d="M 240 26.0v 20.0h 12.0a 10.0 10.0, 0, 0, 0, 0 -20" transform="rotate(180.0,252.0,36.0)" fill="#C0C030" /><rect x="264" y="26.0" width="24" height="20" fill="#F07030" /><path d="M 288 26.0v 20.0h 12.0a 10.0 10.0, 0, 0, 0, 0 -20" fill="#C45508" /><circle cx="274.0" cy="58.0" r="10.0" fill="#C45508" /><path d="M 192 74.0v 20.0h 12.0a 10.0 10.0, 0, 0, 0, 0 -20" transform="rotate(180.0,204.0,84.0)" fill="#C0C030" /><rect x="216" y="74.0" width="24" height="20" fill="#F07030" /><path d="M 240 74.0v 20.0h 12.0a 10.0 10.0, 0, 0, 0, 0 -20" fill="#F07030" /><circle cx="298.0" cy="82.0" r="10.0" fill="#C0C030" /><circle cx="250.0" cy="106.0" r="10.0" fill="#C45508" /><circle cx="202.0" cy="130.0" r="10.0" fill="#C0C030" /><path d="M 264 122.0v 20.0h 12.0a 10.0 10.0, 0, 0, 0, 0 -20" transform="rotate(180.0,276.0,132.0)" fill="#F07030" /><path d="M 288 122.0v 20.0h 12.0a 10.0 10.0, 0, 0, 0, 0 -20" fill="#C0C030" /><circle cx="202.0" cy="154.0" r="10.0" fill="#C0C030" /><circle cx="250.0" cy="154.0" r="10.0" fill="#C0C030" /><circle cx="298.0" cy="154.0" r="10.0" fill="#C0C030" /><circle cx="226.0" cy="178.0" r="10.0" fill="#F07030" /><path d="M 0 194.0v 20.0h 12.0a 10.0 10.0, 0, 0, 0, 0 -20" transform="rotate(180.0,12.0,204.0)" fill="#C45508" /><rect x="24" y="194.0" width="24" height="20" fill="#F07030" /><rect x="48" y="194.0" width="24" height="20" fill="#C45508" /><rect x="72" y="194.0" width="24" height="20" fill="#F07030" /><path d="M 96 194.0v 20.0h 12.0a 10.0 10.0, 0, 0, 0, 0 -20" fill="#C0C030" /><path d="M 144 194.0v 20.0h 12.0a 10.0 10.0, 0, 0, 0, 0 -20" transform="rotate(180.0,156.0,204.0)" fill="#F07030" /><rect x="168" y="194.0" width="24" height="20" fill="#C45508" /><rect x="192" y="194.0" width="24" height="20" fill="#C45508" /><path d="M 216 194.0v 20.0h 12.0a 10.0 10.0, 0, 0, 0, 0 -20" fill="#C0C030" /><circle cx="274.0" cy="202.0" r="10.0" fill="#C0C030" /><circle cx="322.0" cy="202.0" r="10.0" fill="#F07030" /><circle cx="370.0" cy="202.0" r="10.0" fill="#C45508" /><circle cx="418.0" cy="202.0" r="10.0" fill="#C45508" /><circle cx="466.0" cy="202.0" r="10.0" fill="#C0C030" /><circle cx="34.0" cy="226.0" r="10.0" fill="#C45508" /><path d="M 96 218.0v 20.0h 12.0a 10.0 10.0, 0, 0, 0, 0 -20" transform="rotate(180.0,108.0,228.0)" fill="#F07030" /><path d="M 120 218.0v 20.0h 12.0a 10.0 10.0, 0, 0, 0, 0 -20" fill="#F07030" /><circle cx="178.0" cy="226.0" r="10.0" fill="#C0C030" /><circle cx="226.0" cy="226.0" r="10.0" fill="#C0C030" /><path d="M 312 218.0v 20.0h 12.0a 10.0 10.0, 0, 0, 0, 0 -20" transform="rotate(180.0,324.0,228.0)" fill="#F07030" /><rect x="336" y="218.0" width="24" height="20" fill="#C0C030" /><rect x="360" y="218.0" width="24" height="20" fill="#C45508" /><rect x="384" y="218.0" width="24" height="20" fill="#C0C030" /><rect x="408" y="218.0" width="24" height="20" fill="#C0C030" /><rect x="432" y="218.0" width="24" height="20" fill="#F07030" /><rect x="456" y="218.0" width="24" height="20" fill="#C45508" /><path d="M 480 218.0v 20.0h 12.0a 10.0 10.0, 0, 0, 0, 0 -20" fill="#F07030" /><circle cx="58.0" cy="250.0" r="10.0" fill="#C45508" /><circle cx="106.0" cy="250.0" r="10.0" fill="#C45508" /><circle cx="154.0" cy="250.0" r="10.0" fill="#C0C030" /><circle cx="202.0" cy="250.0" r="10.0" fill="#C0C030" /><circle cx="250.0" cy="250.0" r="10.0" fill="#C0C030" /><path d="M 288 242.0v 20.0h 12.0a 10.0 10.0, 0, 0, 0, 0 -20" transform="rotate(180.0,300.0,252.0)" fill="#F07030" /><rect x="312" y="242.0" width="24" height="20" fill="#C0C030" /><rect x="336" y="242.0" width="24" height="20" fill="#C0C030" /><path d="M 360 242.0v 20.0h 12.0a 10.0 10.0, 0, 0, 0, 0 -20" fill="#F07030" /><path d="M 432 242.0v 20.0h 12.0a 10.0 10.0, 0, 0, 0, 0 -20" transform="rotate(180.0,444.0,252.0)" fill="#C45508" /><path d="M 456 242.0v 20.0h 12.0a 10.0 10.0, 0, 0, 0, 0 -20" fill="#C0C030" /><path d="M 24 266.0v 20.0h 12.0a 10.0 10.0, 0, 0, 0, 0 -20" transform="rotate(180.0,36.0,276.0)" fill="#C0C030" /><rect x="48" y="266.0" width="24" height="20" fill="#F07030" /><path d="M 72 266.0v 20.0h 12.0a 10.0 10.0, 0, 0, 0, 0 -20" fill="#C0C030" /><path d="M 168 266.0v 20.0h 12.0a 10.0 10.0, 0, 0, 0, 0 -20" transform="rotate(180.0,180.0,276.0)" fill="#C45508" /><path d="M 192 266.0v 20.0h 12.0a 10.0 10.0, 0, 0, 0, 0 -20" fill="#C45508" /><path d="M 264 266.0v 20.0h 12.0a 10.0 10.0, 0, 0, 0, 0 -20" transform="rotate(180.0,276.0,276.0)" fill="#F07030" /><rect x="288" y="266.0" width="24" height="20" fill="#C0C030" /><path d="M 312 266.0v 20.0h 12.0a 10.0 10.0, 0, 0, 0, 0 -20" fill="#F07030" /><path d="M 384 266.0v 20.0h 12.0a 10.0 10.0, 0, 0, 0, 0 -20" transform="rotate(180.0,396.0,276.0)" fill="#C0C030" /><rect x="408" y="266.0" width="24" height="20" fill="#C0C030" /><path d="M 432 266.0v 20.0h 12.0a 10.0 10.0, 0, 0, 0, 0 -20" fill="#C45508" /><path d="M 0 290.0v 20.0h 12.0a 10.0 10.0, 0, 0, 0, 0 -20" transform="rotate(180.0,12.0,300.0)" fill="#C0C030" /><path d="M 24 290.0v 20.0h 12.0a 10.0 10.0, 0, 0, 0, 0 -20" fill="#C45508" /><path d="M 144 290.0v 20.0h 12.0a 10.0 10.0, 0, 0, 0, 0 -20" transform="rotate(180.0,156.0,300.0)" fill="#C45508" /><rect x="168" y="290.0" width="24" height="20" fill="#C45508" /><path d="M 192 290.0v 20.0h 12.0a 10.0 10.0, 0, 0, 0, 0 -20" fill="#C0C030" /><path d="M 240 290.0v 20.0h 12.0a 10.0 10.0, 0, 0, 0, 0 -20" transform="rotate(180.0,252.0,300.0)" fill="#F07030" /><path d="M 264 290.0v 20.0h 12.0a 10.0 10.0, 0, 0, 0, 0 -20" fill="#F07030" /><circle cx="346.0" cy="298.0" r="10.0" fill="#C45508" /><path d="M 384 290.0v 20.0h 12.0a 10.0 10.0, 0, 0, 0, 0 -20" transform="rotate(180.0,396.0,300.0)" fill="#C0C030" /><path d="M 408 290.0v 20.0h 12.0a 10.0 10.0, 0, 0, 0, 0 -20" fill="#C45508" /><circle cx="490.0" cy="298.0" r="10.0" fill="#C0C030" /><circle cx="202.0" cy="322.0" r="10.0" fill="#F07030" /><circle cx="250.0" cy="322.0" r="10.0" fill="#C0C030" /><path d="M 336 314.0v 20.0h 12.0a 10.0 10.0, 0, 0, 0, 0 -20" transform="rotate(180.0,348.0,324.0)" fill="#C0C030" /><rect x="360" y="314.0" width="24" height="20" fill="#C0C030" /><rect x="384" y="314.0" width="24" height="20" fill="#C45508" /><rect x="408" y="314.0" width="24" height="20" fill="#C45508" /><path d="M 432 314.0v 20.0h 12.0a 10.0 10.0, 0, 0, 0, 0 -20" fill="#C0C030" /><circle cx="490.0" cy="322.0" r="10.0" fill="#C0C030" /><circle cx="202.0" cy="346.0" r="10.0" fill="#F07030" /><path d="M 240 338.0v 20.0h 12.0a 10.0 10.0, 0, 0, 0, 0 -20" transform="rotate(180.0,252.0,348.0)" fill="#F07030" /><rect x="264" y="338.0" width="24" height="20" fill="#C45508" /><path d="M 288 338.0v 20.0h 12.0a 10.0 10.0, 0, 0, 0, 0 -20" fill="#C45508" /><path d="M 336 338.0v 20.0h 12.0a 10.0 10.0, 0, 0, 0, 0 -20" transform="rotate(180.0,348.0,348.0)" fill="#C45508" /><path d="M 360 338.0v 20.0h 12.0a 10.0 10.0, 0, 0, 0, 0 -20" fill="#F07030" /><path d="M 432 338.0v 20.0h 12.0a 10.0 10.0, 0, 0, 0, 0 -20" transform="rotate(180.0,444.0,348.0)" fill="#F07030" /><path d="M 456 338.0v 20.0h 12.0a 10.0 10.0, 0, 0, 0, 0 -20" fill="#F07030" /><circle cx="226.0" cy="370.0" r="10.0" fill="#C45508" /><circle cx="322.0" cy="370.0" r="10.0" fill="#C0C030" /><path d="M 360 362.0v 20.0h 12.0a 10.0 10.0, 0, 0, 0, 0 -20" transform="rotate(180.0,372.0,372.0)" fill="#C45508" /><rect x="384" y="362.0" width="24" height="20" fill="#C45508" /><rect x="408" y="362.0" width="24" height="20" fill="#F07030" /><rect x="432" y="362.0" width="24" height="20" fill="#C45508" /><path d="M 456 362.0v 20.0h 12.0a 10.0 10.0, 0, 0, 0, 0 -20" fill="#C45508" /><path d="M 192 386.0v 20.0h 12.0a 10.0 10.0, 0, 0, 0, 0 -20" transform="rotate(180.0,204.0,396.0)" fill="#F07030" /><path d="M 216 386.0v 20.0h 12.0a 10.0 10.0, 0, 0, 0, 0 -20" fill="#F07030" /><path d="M 288 386.0v 20.0h 12.0a 10.0 10.0, 0, 0, 0, 0 -20" transform="rotate(180.0,300.0,396.0)" fill="#C45508" /><rect x="312" y="386.0" width="24" height="20" fill="#C45508" /><rect x="336" y="386.0" width="24" height="20" fill="#C45508" /><rect x="360" y="386.0" width="24" height="20" fill="#C0C030" /><rect x="384" y="386.0" width="24" height="20" fill="#C0C030" /><path d="M 408 386.0v 20.0h 12.0a 10.0 10.0, 0, 0, 0, 0 -20" fill="#C0C030" /><circle cx="202.0" cy="418.0" r="10.0" fill="#C45508" /><circle cx="250.0" cy="418.0" r="10.0" fill="#C45508" /><circle cx="322.0" cy="418.0" r="10.0" fill="#F07030" /><circle cx="394.0" cy="418.0" r="10.0" fill="#F07030" /><path d="M 432 410.0v 20.0h 12.0a 10.0 10.0, 0, 0, 0, 0 -20" transform="rotate(180.0,444.0,420.0)" fill="#F07030" /><path d="M 456 410.0v 20.0h 12.0a 10.0 10.0, 0, 0, 0, 0 -20" fill="#C0C030" /><circle cx="202.0" cy="442.0" r="10.0" fill="#F07030" /><path d="M 240 434.0v 20.0h 12.0a 10.0 10.0, 0, 0, 0, 0 -20" transform="rotate(180.0,252.0,444.0)" fill="#C45508" /><rect x="264" y="434.0" width="24" height="20" fill="#C45508" /><path d="M 288 434.0v 20.0h 12.0a 10.0 10.0, 0, 0, 0, 0 -20" fill="#C45508" /><path d="M 336 434.0v 20.0h 12.0a 10.0 10.0, 0, 0, 0, 0 -20" transform="rotate(180.0,348.0,444.0)" fill="#F07030" /><path d="M 360 434.0v 20.0h 12.0a 10.0 10.0, 0, 0, 0, 0 -20" fill="#C45508" /><circle cx="442.0" cy="442.0" r="10.0" fill="#C0C030" /><circle cx="202.0" cy="466.0" r="10.0" fill="#C45508" /><path d="M 240 458.0v 20.0h 12.0a 10.0 10.0, 0, 0, 0, 0 -20" transform="rotate(180.0,252.0,468.0)" fill="#C0C030" /><rect x="264" y="458.0" width="24" height="20" fill="#F07030" /><path d="M 288 458.0v 20.0h 12.0a 10.0 10.0, 0, 0, 0, 0 -20" fill="#C45508" /><path d="M 384 458.0v 20.0h 12.0a 10.0 10.0, 0, 0, 0, 0 -20" transform="rotate(180.0,396.0,468.0)" fill="#F07030" /><rect x="408" y="458.0" width="24" height="20" fill="#F07030" /><path d="M 432 458.0v 20.0h 12.0a 10.0 10.0, 0, 0, 0, 0 -20" fill="#F07030" /><circle cx="202.0" cy="490.0" r="10.0" fill="#F07030" /><circle cx="274.0" cy="490.0" r="10.0" fill="#C0C030" /><path d="M 336 482.0v 20.0h 12.0a 10.0 10.0, 0, 0, 0, 0 -20" transform="rotate(180.0,348.0,492.0)" fill="#C0C030" /><path d="M 360 482.0v 20.0h 12.0a 10.0 10.0, 0, 0, 0, 0 -20" fill="#C45508" /><circle cx="418.0" cy="490.0" r="10.0" fill="#C0C030" /><circle cx="466.0" cy="490.0" r="10.0" fill="#C45508" /> </g><g > <path d="M132.0 24a12 12 90 0112 12v96a12 12 90 01-12 12h-96a12 12 90 01-12-12v-96a12 12 90 0112-12h96m0-24h-108q-24 0-24 24v120q0 24 24 24h120q24 0 24-24v-120q0-24-24-24zm-84 54v60a6 6 90 006 6h60a6 6 90 006-6v-60a6 6 90 00-6-6h-60a6 6 90 00-6 6" fill="#F0A020" fill-rule="evenodd" /><path d="M468.0 24a12 12 90 0112 12v96a12 12 90 01-12 12h-96a12 12 90 01-12-12v-96a12 12 90 0112-12h96m0-24h-108q-24 0-24 24v120q0 24 24 24h120q24 0 24-24v-120q0-24-24-24zm-84 54v60a6 6 90 006 6h60a6 6 90 006-6v-60a6 6 90 00-6-6h-60a6 6 90 00-6 6" fill="#F97306" fill-rule="evenodd" /><path d="M132.0 360a12 12 90 0112 12v96a12 12 90 01-12 12h-96a12 12 90 01-12-12v-96a12 12 90 0112-12h96m0-24h-108q-24 0-24 24v120q0 24 24 24h120q24 0 24-24v-120q0-24-24-24zm-84 54v60a6 6 90 006 6h60a6 6 90 006-6v-60a6 6 90 00-6-6h-60a6 6 90 00-6 6" fill="#D26643" fill-rule="evenodd" /> </g> </g><g /> </svg>