<svg viewBox="0 0 600 600" width="600" height="600" xmlns="http://www.w3.org/2000/svg" > <g > <circle cx="227.0" cy="11.0" r="11.0" color="black" fill="black" /><circle cx="323.0" cy="11.0" r="11.0" color="black" fill="black" /><circle cx="395.0" cy="11.0" r="11.0" color="black" fill="black" /><path d="M 192 25.0v 22.0h 12.0a 11.0 11.0, 0, 0, 0, 0 -22" transform="rotate(180.0,204.0,36.0)" color="black" fill="black" /><path d="M 216 25.0v 22.0h 12.0a 11.0 11.0, 0, 0, 0, 0 -22" color="black" fill="black" /><path d="M 264 25.0v 22.0h 12.0a 11.0 11.0, 0, 0, 0, 0 -22" transform="rotate(180.0,276.0,36.0)" color="black" fill="black" /><path d="M 288 25.0v 22.0h 12.0a 11.0 11.0, 0, 0, 0, 0 -22" color="black" fill="black" /><path d="M 336 25.0v 22.0h 12.0a 11.0 11.0, 0, 0, 0, 0 -22" transform="rotate(180.0,348.0,36.0)" color="black" fill="black" /><rect x="360" y="25.0" width="24" height="22" color="black" fill="black" /><path d="M 384 25.0v 22.0h 12.0a 11.0 11.0, 0, 0, 0, 0 -22" color="black" fill="black" /><path d="M 216 49.0v 22.0h 12.0a 11.0 11.0, 0, 0, 0, 0 -22" transform="rotate(180.0,228.0,60.0)" color="black" fill="black" /><rect x="240" y="49.0" width="24" height="22" color="black" fill="black" /><path d="M 264 49.0v 22.0h 12.0a 11.0 11.0, 0, 0, 0, 0 -22" color="black" fill="black" /><circle cx="347.0" cy="59.0" r="11.0" color="black" fill="black" /><circle cx="395.0" cy="59.0" r="11.0" color="black" fill="black" /><path d="M 192 73.0v 22.0h 12.0a 11.0 11.0, 0, 0, 0, 0 -22" transform="rotate(180.0,204.0,84.0)" color="black" fill="black" /><path d="M 216 73.0v 22.0h 12.0a 11.0 11.0, 0, 0, 0, 0 -22" color="black" fill="black" /><circle cx="275.0" cy="83.0" r="11.0" color="black" fill="black" /><circle cx="251.0" cy="107.0" r="11.0" color="black" fill="black" /><path d="M 288 97.0v 22.0h 12.0a 11.0 11.0, 0, 0, 0, 0 -22" transform="rotate(180.0,300.0,108.0)" color="black" fill="black" /><path d="M 312 97.0v 22.0h 12.0a 11.0 11.0, 0, 0, 0, 0 -22" color="black" fill="black" /><circle cx="395.0" cy="107.0" r="11.0" color="black" fill="black" /><circle cx="203.0" cy="131.0" r="11.0" color="black" fill="black" /><circle cx="251.0" cy="131.0" r="11.0" color="black" fill="black" /><path d="M 312 121.0v 22.0h 12.0a 11.0 11.0, 0, 0, 0, 0 -22" transform="rotate(180.0,324.0,132.0)" color="black" fill="black" /><rect x="336" y="121.0" width="24" height="22" color="black" fill="black" /><rect x="360" y="121.0" width="24" height="22" color="black" fill="black" /><path d="M 384 121.0v 22.0h 12.0a 11.0 11.0, 0, 0, 0, 0 -22" color="black" fill="black" /><circle cx="203.0" cy="155.0" r="11.0" color="black" fill="black" /><circle cx="251.0" cy="155.0" r="11.0" color="black" fill="black" /><circle cx="299.0" cy="155.0" r="11.0" color="black" fill="black" /><circle cx="347.0" cy="155.0" r="11.0" color="black" fill="black" /><circle cx="395.0" cy="155.0" r="11.0" color="black" fill="black" /><path d="M 288 169.0v 22.0h 12.0a 11.0 11.0, 0, 0, 0, 0 -22" transform="rotate(180.0,300.0,180.0)" color="black" fill="black" /><path d="M 312 169.0v 22.0h 12.0a 11.0 11.0, 0, 0, 0, 0 -22" color="black" fill="black" /><path d="M 0 193.0v 22.0h 12.0a 11.0 11.0, 0, 0, 0, 0 -22" transform="rotate(180.0,12.0,204.0)" color="black" fill="black" /><rect x="24" y="193.0" width="24" height="22" color="black" fill="black" /><rect x="48" y="193.0" width="24" height="22" color="black" fill="black" /><rect x="72" y="193.0" width="24" height="22" color="black" fill="black" /><path d="M 96 193.0v 22.0h 12.0a 11.0 11.0, 0, 0, 0, 0 -22" color="black" fill="black" /><path d="M 144 193.0v 22.0h 12.0a 11.0 11.0, 0, 0, 0, 0 -22" transform="rotate(180.0,156.0,204.0)" color="black" fill="black" /><rect x="168" y="193.0" width="24" height="22" color="black" fill="black" /><rect x="192" y="193.0" width="24" height="22" color="black" fill="black" /><rect x="216" y="193.0" width="24" height="22" color="black" fill="black" /><path d="M 240 193.0v 22.0h 12.0a 11.0 11.0, 0, 0, 0, 0 -22" color="black" fill="black" /><circle cx="299.0" cy="203.0" r="11.0" color="black" fill="black" /><path d="M 336 193.0v 22.0h 12.0a 11.0 11.0, 0, 0, 0, 0 -22" transform="rotate(180.0,348.0,204.0)" color="black" fill="black" /><path d="M 360 193.0v 22.0h 12.0a 11.0 11.0, 0, 0, 0, 0 -22" color="black" fill="black" /><circle cx="419.0" cy="203.0" r="11.0" color="black" fill="black" /><circle cx="467.0" cy="203.0" r="11.0" color="black" fill="black" /><circle cx="515.0" cy="203.0" r="11.0" color="black" fill="black" /><circle cx="563.0" cy="203.0" r="11.0" color="black" fill="black" /><path d="M 24 217.0v 22.0h 12.0a 11.0 11.0, 0, 0, 0, 0 -22" transform="rotate(180.0,36.0,228.0)" color="black" fill="black" /><rect x="48" y="217.0" width="24" height="22" color="black" fill="black" /><rect x="72" y="217.0" width="24" height="22" color="black" fill="black" /><path d="M 96 217.0v 22.0h 12.0a 11.0 11.0, 0, 0, 0, 0 -22" color="black" fill="black" /><circle cx="179.0" cy="227.0" r="11.0" color="black" fill="black" /><circle cx="227.0" cy="227.0" r="11.0" color="black" fill="black" /><circle cx="395.0" cy="227.0" r="11.0" color="black" fill="black" /><circle cx="467.0" cy="227.0" r="11.0" color="black" fill="black" /><circle cx="563.0" cy="227.0" r="11.0" color="black" fill="black" /><path d="M 48 241.0v 22.0h 12.0a 11.0 11.0, 0, 0, 0, 0 -22" transform="rotate(180.0,60.0,252.0)" color="black" fill="black" /><path d="M 72 241.0v 22.0h 12.0a 11.0 11.0, 0, 0, 0, 0 -22" color="black" fill="black" /><path d="M 120 241.0v 22.0h 12.0a 11.0 11.0, 0, 0, 0, 0 -22" transform="rotate(180.0,132.0,252.0)" color="black" fill="black" /><path d="M 144 241.0v 22.0h 12.0a 11.0 11.0, 0, 0, 0, 0 -22" color="black" fill="black" /><path d="M 192 241.0v 22.0h 12.0a 11.0 11.0, 0, 0, 0, 0 -22" transform="rotate(180.0,204.0,252.0)" color="black" fill="black" /><path d="M 216 241.0v 22.0h 12.0a 11.0 11.0, 0, 0, 0, 0 -22" color="black" fill="black" /><path d="M 264 241.0v 22.0h 12.0a 11.0 11.0, 0, 0, 0, 0 -22" transform="rotate(180.0,276.0,252.0)" color="black" fill="black" /><path d="M 288 241.0v 22.0h 12.0a 11.0 11.0, 0, 0, 0, 0 -22" color="black" fill="black" /><circle cx="371.0" cy="251.0" r="11.0" color="black" fill="black" /><circle cx="419.0" cy="251.0" r="11.0" color="black" fill="black" /><path d="M 456 241.0v 22.0h 12.0a 11.0 11.0, 0, 0, 0, 0 -22" transform="rotate(180.0,468.0,252.0)" color="black" fill="black" /><rect x="480" y="241.0" width="24" height="22" color="black" fill="black" /><path d="M 504 241.0v 22.0h 12.0a 11.0 11.0, 0, 0, 0, 0 -22" color="black" fill="black" /><path d="M 552 241.0v 22.0h 12.0a 11.0 11.0, 0, 0, 0, 0 -22" transform="rotate(180.0,564.0,252.0)" color="black" fill="black" /><path d="M 576 241.0v 22.0h 12.0a 11.0 11.0, 0, 0, 0, 0 -22" color="black" fill="black" /><circle cx="59.0" cy="275.0" r="11.0" color="black" fill="black" /><path d="M 168 265.0v 22.0h 12.0a 11.0 11.0, 0, 0, 0, 0 -22" transform="rotate(180.0,180.0,276.0)" color="black" fill="black" /><rect x="192" y="265.0" width="24" height="22" color="black" fill="black" /><rect x="216" y="265.0" width="24" height="22" color="black" fill="black" /><rect x="240" y="265.0" width="24" height="22" color="black" fill="black" /><path d="M 264 265.0v 22.0h 12.0a 11.0 11.0, 0, 0, 0, 0 -22" color="black" fill="black" /><circle cx="347.0" cy="275.0" r="11.0" color="black" fill="black" /><path d="M 384 265.0v 22.0h 12.0a 11.0 11.0, 0, 0, 0, 0 -22" transform="rotate(180.0,396.0,276.0)" color="black" fill="black" /><path d="M 408 265.0v 22.0h 12.0a 11.0 11.0, 0, 0, 0, 0 -22" color="black" fill="black" /><circle cx="467.0" cy="275.0" r="11.0" color="black" fill="black" /><circle cx="587.0" cy="275.0" r="11.0" color="black" fill="black" /><circle cx="11.0" cy="299.0" r="11.0" color="black" fill="black" /><circle cx="107.0" cy="299.0" r="11.0" color="black" fill="black" /><circle cx="155.0" cy="299.0" r="11.0" color="black" fill="black" /><circle cx="227.0" cy="299.0" r="11.0" color="black" fill="black" /><circle cx="275.0" cy="299.0" r="11.0" color="black" fill="black" /><path d="M 408 289.0v 22.0h 12.0a 11.0 11.0, 0, 0, 0, 0 -22" transform="rotate(180.0,420.0,300.0)" color="black" fill="black" /><path d="M 432 289.0v 22.0h 12.0a 11.0 11.0, 0, 0, 0, 0 -22" color="black" fill="black" /><circle cx="491.0" cy="299.0" r="11.0" color="black" fill="black" /><path d="M 528 289.0v 22.0h 12.0a 11.0 11.0, 0, 0, 0, 0 -22" transform="rotate(180.0,540.0,300.0)" color="black" fill="black" /><rect x="552" y="289.0" width="24" height="22" color="black" fill="black" /><path d="M 576 289.0v 22.0h 12.0a 11.0 11.0, 0, 0, 0, 0 -22" color="black" fill="black" /><path d="M 0 313.0v 22.0h 12.0a 11.0 11.0, 0, 0, 0, 0 -22" transform="rotate(180.0,12.0,324.0)" color="black" fill="black" /><rect x="24" y="313.0" width="24" height="22" color="black" fill="black" /><path d="M 48 313.0v 22.0h 12.0a 11.0 11.0, 0, 0, 0, 0 -22" color="black" fill="black" /><circle cx="131.0" cy="323.0" r="11.0" color="black" fill="black" /><circle cx="251.0" cy="323.0" r="11.0" color="black" fill="black" /><path d="M 288 313.0v 22.0h 12.0a 11.0 11.0, 0, 0, 0, 0 -22" transform="rotate(180.0,300.0,324.0)" color="black" fill="black" /><rect x="312" y="313.0" width="24" height="22" color="black" fill="black" /><path d="M 336 313.0v 22.0h 12.0a 11.0 11.0, 0, 0, 0, 0 -22" color="black" fill="black" /><circle cx="467.0" cy="323.0" r="11.0" color="black" fill="black" /><circle cx="515.0" cy="323.0" r="11.0" color="black" fill="black" /><circle cx="563.0" cy="323.0" r="11.0" color="black" fill="black" /><circle cx="11.0" cy="347.0" r="11.0" color="black" fill="black" /><path d="M 120 337.0v 22.0h 12.0a 11.0 11.0, 0, 0, 0, 0 -22" transform="rotate(180.0,132.0,348.0)" color="black" fill="black" /><path d="M 144 337.0v 22.0h 12.0a 11.0 11.0, 0, 0, 0, 0 -22" color="black" fill="black" /><path d="M 192 337.0v 22.0h 12.0a 11.0 11.0, 0, 0, 0, 0 -22" transform="rotate(180.0,204.0,348.0)" color="black" fill="black" /><path d="M 216 337.0v 22.0h 12.0a 11.0 11.0, 0, 0, 0, 0 -22" color="black" fill="black" /><path d="M 312 337.0v 22.0h 12.0a 11.0 11.0, 0, 0, 0, 0 -22" transform="rotate(180.0,324.0,348.0)" color="black" fill="black" /><rect x="336" y="337.0" width="24" height="22" color="black" fill="black" /><rect x="360" y="337.0" width="24" height="22" color="black" fill="black" /><rect x="384" y="337.0" width="24" height="22" color="black" fill="black" /><path d="M 408 337.0v 22.0h 12.0a 11.0 11.0, 0, 0, 0, 0 -22" color="black" fill="black" /><path d="M 456 337.0v 22.0h 12.0a 11.0 11.0, 0, 0, 0, 0 -22" transform="rotate(180.0,468.0,348.0)" color="black" fill="black" /><rect x="480" y="337.0" width="24" height="22" color="black" fill="black" /><path d="M 504 337.0v 22.0h 12.0a 11.0 11.0, 0, 0, 0, 0 -22" color="black" fill="black" /><path d="M 552 337.0v 22.0h 12.0a 11.0 11.0, 0, 0, 0, 0 -22" transform="rotate(180.0,564.0,348.0)" color="black" fill="black" /><path d="M 576 337.0v 22.0h 12.0a 11.0 11.0, 0, 0, 0, 0 -22" color="black" fill="black" /><circle cx="11.0" cy="371.0" r="11.0" color="black" fill="black" /><path d="M 48 361.0v 22.0h 12.0a 11.0 11.0, 0, 0, 0, 0 -22" transform="rotate(180.0,60.0,372.0)" color="black" fill="black" /><rect x="72" y="361.0" width="24" height="22" color="black" fill="black" /><path d="M 96 361.0v 22.0h 12.0a 11.0 11.0, 0, 0, 0, 0 -22" color="black" fill="black" /><path d="M 168 361.0v 22.0h 12.0a 11.0 11.0, 0, 0, 0, 0 -22" transform="rotate(180.0,180.0,372.0)" color="black" fill="black" /><rect x="192" y="361.0" width="24" height="22" color="black" fill="black" /><path d="M 216 361.0v 22.0h 12.0a 11.0 11.0, 0, 0, 0, 0 -22" color="black" fill="black" /><path d="M 288 361.0v 22.0h 12.0a 11.0 11.0, 0, 0, 0, 0 -22" transform="rotate(180.0,300.0,372.0)" color="black" fill="black" /><path d="M 312 361.0v 22.0h 12.0a 11.0 11.0, 0, 0, 0, 0 -22" color="black" fill="black" /><path d="M 360 361.0v 22.0h 12.0a 11.0 11.0, 0, 0, 0, 0 -22" transform="rotate(180.0,372.0,372.0)" color="black" fill="black" /><rect x="384" y="361.0" width="24" height="22" color="black" fill="black" /><path d="M 408 361.0v 22.0h 12.0a 11.0 11.0, 0, 0, 0, 0 -22" color="black" fill="black" /><path d="M 456 361.0v 22.0h 12.0a 11.0 11.0, 0, 0, 0, 0 -22" transform="rotate(180.0,468.0,372.0)" color="black" fill="black" /><path d="M 480 361.0v 22.0h 12.0a 11.0 11.0, 0, 0, 0, 0 -22" color="black" fill="black" /><circle cx="587.0" cy="371.0" r="11.0" color="black" fill="black" /><circle cx="11.0" cy="395.0" r="11.0" color="black" fill="black" /><path d="M 48 385.0v 22.0h 12.0a 11.0 11.0, 0, 0, 0, 0 -22" transform="rotate(180.0,60.0,396.0)" color="black" fill="black" /><rect x="72" y="385.0" width="24" height="22" color="black" fill="black" /><path d="M 96 385.0v 22.0h 12.0a 11.0 11.0, 0, 0, 0, 0 -22" color="black" fill="black" /><circle cx="155.0" cy="395.0" r="11.0" color="black" fill="black" /><circle cx="251.0" cy="395.0" r="11.0" color="black" fill="black" /><circle cx="299.0" cy="395.0" r="11.0" color="black" fill="black" /><path d="M 336 385.0v 22.0h 12.0a 11.0 11.0, 0, 0, 0, 0 -22" transform="rotate(180.0,348.0,396.0)" color="black" fill="black" /><rect x="360" y="385.0" width="24" height="22" color="black" fill="black" /><rect x="384" y="385.0" width="24" height="22" color="black" fill="black" /><rect x="408" y="385.0" width="24" height="22" color="black" fill="black" /><rect x="432" y="385.0" width="24" height="22" color="black" fill="black" /><rect x="456" y="385.0" width="24" height="22" color="black" fill="black" /><path d="M 480 385.0v 22.0h 12.0a 11.0 11.0, 0, 0, 0, 0 -22" color="black" fill="black" /><circle cx="539.0" cy="395.0" r="11.0" color="black" fill="black" /><circle cx="203.0" cy="419.0" r="11.0" color="black" fill="black" /><path d="M 360 409.0v 22.0h 12.0a 11.0 11.0, 0, 0, 0, 0 -22" transform="rotate(180.0,372.0,420.0)" color="black" fill="black" /><path d="M 384 409.0v 22.0h 12.0a 11.0 11.0, 0, 0, 0, 0 -22" color="black" fill="black" /><path d="M 480 409.0v 22.0h 12.0a 11.0 11.0, 0, 0, 0, 0 -22" transform="rotate(180.0,492.0,420.0)" color="black" fill="black" /><path d="M 504 409.0v 22.0h 12.0a 11.0 11.0, 0, 0, 0, 0 -22" color="black" fill="black" /><circle cx="203.0" cy="443.0" r="11.0" color="black" fill="black" /><path d="M 240 433.0v 22.0h 12.0a 11.0 11.0, 0, 0, 0, 0 -22" transform="rotate(180.0,252.0,444.0)" color="black" fill="black" /><rect x="264" y="433.0" width="24" height="22" color="black" fill="black" /><path d="M 288 433.0v 22.0h 12.0a 11.0 11.0, 0, 0, 0, 0 -22" color="black" fill="black" /><circle cx="395.0" cy="443.0" r="11.0" color="black" fill="black" /><circle cx="443.0" cy="443.0" r="11.0" color="black" fill="black" /><circle cx="491.0" cy="443.0" r="11.0" color="black" fill="black" /><path d="M 528 433.0v 22.0h 12.0a 11.0 11.0, 0, 0, 0, 0 -22" transform="rotate(180.0,540.0,444.0)" color="black" fill="black" /><rect x="552" y="433.0" width="24" height="22" color="black" fill="black" /><path d="M 576 433.0v 22.0h 12.0a 11.0 11.0, 0, 0, 0, 0 -22" color="black" fill="black" /><circle cx="227.0" cy="467.0" r="11.0" color="black" fill="black" /><circle cx="275.0" cy="467.0" r="11.0" color="black" fill="black" /><circle cx="347.0" cy="467.0" r="11.0" color="black" fill="black" /><circle cx="395.0" cy="467.0" r="11.0" color="black" fill="black" /><path d="M 480 457.0v 22.0h 12.0a 11.0 11.0, 0, 0, 0, 0 -22" transform="rotate(180.0,492.0,468.0)" color="black" fill="black" /><path d="M 504 457.0v 22.0h 12.0a 11.0 11.0, 0, 0, 0, 0 -22" color="black" fill="black" /><path d="M 192 481.0v 22.0h 12.0a 11.0 11.0, 0, 0, 0, 0 -22" transform="rotate(180.0,204.0,492.0)" color="black" fill="black" /><path d="M 216 481.0v 22.0h 12.0a 11.0 11.0, 0, 0, 0, 0 -22" color="black" fill="black" /><circle cx="275.0" cy="491.0" r="11.0" color="black" fill="black" /><path d="M 360 481.0v 22.0h 12.0a 11.0 11.0, 0, 0, 0, 0 -22" transform="rotate(180.0,372.0,492.0)" color="black" fill="black" /><rect x="384" y="481.0" width="24" height="22" color="black" fill="black" /><rect x="408" y="481.0" width="24" height="22" color="black" fill="black" /><rect x="432" y="481.0" width="24" height="22" color="black" fill="black" /><rect x="456" y="481.0" width="24" height="22" color="black" fill="black" /><path d="M 480 481.0v 22.0h 12.0a 11.0 11.0, 0, 0, 0, 0 -22" color="black" fill="black" /><circle cx="539.0" cy="491.0" r="11.0" color="black" fill="black" /><circle cx="587.0" cy="491.0" r="11.0" color="black" fill="black" /><path d="M 192 505.0v 22.0h 12.0a 11.0 11.0, 0, 0, 0, 0 -22" transform="rotate(180.0,204.0,516.0)" color="black" fill="black" /><rect x="216" y="505.0" width="24" height="22" color="black" fill="black" /><path d="M 240 505.0v 22.0h 12.0a 11.0 11.0, 0, 0, 0, 0 -22" color="black" fill="black" /><path d="M 288 505.0v 22.0h 12.0a 11.0 11.0, 0, 0, 0, 0 -22" transform="rotate(180.0,300.0,516.0)" color="black" fill="black" /><rect x="312" y="505.0" width="24" height="22" color="black" fill="black" /><rect x="336" y="505.0" width="24" height="22" color="black" fill="black" /><path d="M 360 505.0v 22.0h 12.0a 11.0 11.0, 0, 0, 0, 0 -22" color="black" fill="black" /><path d="M 408 505.0v 22.0h 12.0a 11.0 11.0, 0, 0, 0, 0 -22" transform="rotate(180.0,420.0,516.0)" color="black" fill="black" /><path d="M 432 505.0v 22.0h 12.0a 11.0 11.0, 0, 0, 0, 0 -22" color="black" fill="black" /><path d="M 480 505.0v 22.0h 12.0a 11.0 11.0, 0, 0, 0, 0 -22" transform="rotate(180.0,492.0,516.0)" color="black" fill="black" /><rect x="504" y="505.0" width="24" height="22" color="black" fill="black" /><rect x="528" y="505.0" width="24" height="22" color="black" fill="black" /><rect x="552" y="505.0" width="24" height="22" color="black" fill="black" /><path d="M 576 505.0v 22.0h 12.0a 11.0 11.0, 0, 0, 0, 0 -22" color="black" fill="black" /><circle cx="203.0" cy="539.0" r="11.0" color="black" fill="black" /><circle cx="251.0" cy="539.0" r="11.0" color="black" fill="black" /><path d="M 312 529.0v 22.0h 12.0a 11.0 11.0, 0, 0, 0, 0 -22" transform="rotate(180.0,324.0,540.0)" color="black" fill="black" /><path d="M 336 529.0v 22.0h 12.0a 11.0 11.0, 0, 0, 0, 0 -22" color="black" fill="black" /><circle cx="395.0" cy="539.0" r="11.0" color="black" fill="black" /><path d="M 504 529.0v 22.0h 12.0a 11.0 11.0, 0, 0, 0, 0 -22" transform="rotate(180.0,516.0,540.0)" color="black" fill="black" /><path d="M 528 529.0v 22.0h 12.0a 11.0 11.0, 0, 0, 0, 0 -22" color="black" fill="black" /><circle cx="587.0" cy="539.0" r="11.0" color="black" fill="black" /><path d="M 192 553.0v 22.0h 12.0a 11.0 11.0, 0, 0, 0, 0 -22" transform="rotate(180.0,204.0,564.0)" color="black" fill="black" /><rect x="216" y="553.0" width="24" height="22" color="black" fill="black" /><path d="M 240 553.0v 22.0h 12.0a 11.0 11.0, 0, 0, 0, 0 -22" color="black" fill="black" /><path d="M 288 553.0v 22.0h 12.0a 11.0 11.0, 0, 0, 0, 0 -22" transform="rotate(180.0,300.0,564.0)" color="black" fill="black" /><path d="M 312 553.0v 22.0h 12.0a 11.0 11.0, 0, 0, 0, 0 -22" color="black" fill="black" /><path d="M 360 553.0v 22.0h 12.0a 11.0 11.0, 0, 0, 0, 0 -22" transform="rotate(180.0,372.0,564.0)" color="black" fill="black" /><rect x="384" y="553.0" width="24" height="22" color="black" fill="black" /><rect x="408" y="553.0" width="24" height="22" color="black" fill="black" /><rect x="432" y="553.0" width="24" height="22" color="black" fill="black" /><rect x="456" y="553.0" width="24" height="22" color="black" fill="black" /><rect x="480" y="553.0" width="24" height="22" color="black" fill="black" /><path d="M 504 553.0v 22.0h 12.0a 11.0 11.0, 0, 0, 0, 0 -22" color="black" fill="black" /><circle cx="587.0" cy="563.0" r="11.0" color="black" fill="black" /><path d="M 192 577.0v 22.0h 12.0a 11.0 11.0, 0, 0, 0, 0 -22" transform="rotate(180.0,204.0,588.0)" color="black" fill="black" /><rect x="216" y="577.0" width="24" height="22" color="black" fill="black" /><path d="M 240 577.0v 22.0h 12.0a 11.0 11.0, 0, 0, 0, 0 -22" color="black" fill="black" /><circle cx="299.0" cy="587.0" r="11.0" color="black" fill="black" /><circle cx="347.0" cy="587.0" r="11.0" color="black" fill="black" /><circle cx="419.0" cy="587.0" r="11.0" color="black" fill="black" /><path d="M 456 577.0v 22.0h 12.0a 11.0 11.0, 0, 0, 0, 0 -22" transform="rotate(180.0,468.0,588.0)" color="black" fill="black" /><rect x="480" y="577.0" width="24" height="22" color="black" fill="black" /><rect x="504" y="577.0" width="24" height="22" color="black" fill="black" /><rect x="528" y="577.0" width="24" height="22" color="black" fill="black" /><rect x="552" y="577.0" width="24" height="22" color="black" fill="black" /><path d="M 576 577.0v 22.0h 12.0a 11.0 11.0, 0, 0, 0, 0 -22" color="black" fill="black" /> </g><g > <path d="M132.0 24a12 12 90 0112 12v96a12 12 90 01-12 12h-96a12 12 90 01-12-12v-96a12 12 90 0112-12h96m0-24h-108q-24 0-24 24v120q0 24 24 24h120q24 0 24-24v-120q0-24-24-24zm-84 54v60a6 6 90 006 6h60a6 6 90 006-6v-60a6 6 90 00-6-6h-60a6 6 90 00-6 6" fill="black" fill-rule="evenodd" /><path d="M132.0 456a12 12 90 0112 12v96a12 12 90 01-12 12h-96a12 12 90 01-12-12v-96a12 12 90 0112-12h96m0-24h-108q-24 0-24 24v120q0 24 24 24h120q24 0 24-24v-120q0-24-24-24zm-84 54v60a6 6 90 006 6h60a6 6 90 006-6v-60a6 6 90 00-6-6h-60a6 6 90 00-6 6" fill="black" fill-rule="evenodd" /><path d="M564.0 24a12 12 90 0112 12v96a12 12 90 01-12 12h-96a12 12 90 01-12-12v-96a12 12 90 0112-12h96m0-24h-108q-24 0-24 24v120q0 24 24 24h120q24 0 24-24v-120q0-24-24-24zm-84 54v60a6 6 90 006 6h60a6 6 90 006-6v-60a6 6 90 00-6-6h-60a6 6 90 00-6 6" fill="black" fill-rule="evenodd" /> </g> </svg>