<svg viewBox="0 0 600 600" width="600" height="600" xmlns="http://www.w3.org/2000/svg" > <defs /><g > <rect x="216" y="0" width="24" height="24" /><rect x="312" y="0" width="24" height="24" /><rect x="384" y="0" width="24" height="24" /><rect x="192" y="24" width="24" height="24" /><rect x="216" y="24" width="24" height="24" /><rect x="264" y="24" width="24" height="24" /><rect x="288" y="24" width="24" height="24" /><rect x="336" y="24" width="24" height="24" /><rect x="360" y="24" width="24" height="24" /><rect x="384" y="24" width="24" height="24" /><rect x="216" y="48" width="24" height="24" /><rect x="240" y="48" width="24" height="24" /><rect x="264" y="48" width="24" height="24" /><rect x="336" y="48" width="24" height="24" /><rect x="384" y="48" width="24" height="24" /><rect x="192" y="72" width="24" height="24" /><rect x="216" y="72" width="24" height="24" /><rect x="264" y="72" width="24" height="24" /><rect x="240" y="96" width="24" height="24" /><rect x="288" y="96" width="24" height="24" /><rect x="312" y="96" width="24" height="24" /><rect x="384" y="96" width="24" height="24" /><rect x="192" y="120" width="24" height="24" /><rect x="240" y="120" width="24" height="24" /><rect x="312" y="120" width="24" height="24" /><rect x="336" y="120" width="24" height="24" /><rect x="360" y="120" width="24" height="24" /><rect x="384" y="120" width="24" height="24" /><rect x="192" y="144" width="24" height="24" /><rect x="240" y="144" width="24" height="24" /><rect x="288" y="144" width="24" height="24" /><rect x="336" y="144" width="24" height="24" /><rect x="384" y="144" width="24" height="24" /><rect x="288" y="168" width="24" height="24" /><rect x="312" y="168" width="24" height="24" /><rect x="0" y="192" width="24" height="24" /><rect x="24" y="192" width="24" height="24" /><rect x="48" y="192" width="24" height="24" /><rect x="72" y="192" width="24" height="24" /><rect x="96" y="192" width="24" height="24" /><rect x="144" y="192" width="24" height="24" /><rect x="168" y="192" width="24" height="24" /><rect x="192" y="192" width="24" height="24" /><rect x="216" y="192" width="24" height="24" /><rect x="240" y="192" width="24" height="24" /><rect x="288" y="192" width="24" height="24" /><rect x="336" y="192" width="24" height="24" /><rect x="360" y="192" width="24" height="24" /><rect x="408" y="192" width="24" height="24" /><rect x="456" y="192" width="24" height="24" /><rect x="504" y="192" width="24" height="24" /><rect x="552" y="192" width="24" height="24" /><rect x="24" y="216" width="24" height="24" /><rect x="48" y="216" width="24" height="24" /><rect x="72" y="216" width="24" height="24" /><rect x="96" y="216" width="24" height="24" /><rect x="168" y="216" width="24" height="24" /><rect x="216" y="216" width="24" height="24" /><rect x="384" y="216" width="24" height="24" /><rect x="456" y="216" width="24" height="24" /><rect x="552" y="216" width="24" height="24" /><rect x="48" y="240" width="24" height="24" /><rect x="72" y="240" width="24" height="24" /><rect x="120" y="240" width="24" height="24" /><rect x="144" y="240" width="24" height="24" /><rect x="192" y="240" width="24" height="24" /><rect x="216" y="240" width="24" height="24" /><rect x="264" y="240" width="24" height="24" /><rect x="288" y="240" width="24" height="24" /><rect x="360" y="240" width="24" height="24" /><rect x="408" y="240" width="24" height="24" /><rect x="456" y="240" width="24" height="24" /><rect x="480" y="240" width="24" height="24" /><rect x="504" y="240" width="24" height="24" /><rect x="552" y="240" width="24" height="24" /><rect x="576" y="240" width="24" height="24" /><rect x="48" y="264" width="24" height="24" /><rect x="168" y="264" width="24" height="24" /><rect x="192" y="264" width="24" height="24" /><rect x="216" y="264" width="24" height="24" /><rect x="240" y="264" width="24" height="24" /><rect x="264" y="264" width="24" height="24" /><rect x="336" y="264" width="24" height="24" /><rect x="384" y="264" width="24" height="24" /><rect x="408" y="264" width="24" height="24" /><rect x="456" y="264" width="24" height="24" /><rect x="576" y="264" width="24" height="24" /><rect x="0" y="288" width="24" height="24" /><rect x="96" y="288" width="24" height="24" /><rect x="144" y="288" width="24" height="24" /><rect x="216" y="288" width="24" height="24" /><rect x="264" y="288" width="24" height="24" /><rect x="408" y="288" width="24" height="24" /><rect x="432" y="288" width="24" height="24" /><rect x="480" y="288" width="24" height="24" /><rect x="528" y="288" width="24" height="24" /><rect x="552" y="288" width="24" height="24" /><rect x="576" y="288" width="24" height="24" /><rect x="0" y="312" width="24" height="24" /><rect x="24" y="312" width="24" height="24" /><rect x="48" y="312" width="24" height="24" /><rect x="120" y="312" width="24" height="24" /><rect x="240" y="312" width="24" height="24" /><rect x="288" y="312" width="24" height="24" /><rect x="312" y="312" width="24" height="24" /><rect x="336" y="312" width="24" height="24" /><rect x="456" y="312" width="24" height="24" /><rect x="504" y="312" width="24" height="24" /><rect x="552" y="312" width="24" height="24" /><rect x="0" y="336" width="24" height="24" /><rect x="120" y="336" width="24" height="24" /><rect x="144" y="336" width="24" height="24" /><rect x="192" y="336" width="24" height="24" /><rect x="216" y="336" width="24" height="24" /><rect x="312" y="336" width="24" height="24" /><rect x="336" y="336" width="24" height="24" /><rect x="360" y="336" width="24" height="24" /><rect x="384" y="336" width="24" height="24" /><rect x="408" y="336" width="24" height="24" /><rect x="456" y="336" width="24" height="24" /><rect x="480" y="336" width="24" height="24" /><rect x="504" y="336" width="24" height="24" /><rect x="552" y="336" width="24" height="24" /><rect x="576" y="336" width="24" height="24" /><rect x="0" y="360" width="24" height="24" /><rect x="48" y="360" width="24" height="24" /><rect x="72" y="360" width="24" height="24" /><rect x="96" y="360" width="24" height="24" /><rect x="168" y="360" width="24" height="24" /><rect x="192" y="360" width="24" height="24" /><rect x="216" y="360" width="24" height="24" /><rect x="288" y="360" width="24" height="24" /><rect x="312" y="360" width="24" height="24" /><rect x="360" y="360" width="24" height="24" /><rect x="384" y="360" width="24" height="24" /><rect x="408" y="360" width="24" height="24" /><rect x="456" y="360" width="24" height="24" /><rect x="480" y="360" width="24" height="24" /><rect x="576" y="360" width="24" height="24" /><rect x="0" y="384" width="24" height="24" /><rect x="48" y="384" width="24" height="24" /><rect x="72" y="384" width="24" height="24" /><rect x="96" y="384" width="24" height="24" /><rect x="144" y="384" width="24" height="24" /><rect x="240" y="384" width="24" height="24" /><rect x="288" y="384" width="24" height="24" /><rect x="336" y="384" width="24" height="24" /><rect x="360" y="384" width="24" height="24" /><rect x="384" y="384" width="24" height="24" /><rect x="408" y="384" width="24" height="24" /><rect x="432" y="384" width="24" height="24" /><rect x="456" y="384" width="24" height="24" /><rect x="480" y="384" width="24" height="24" /><rect x="528" y="384" width="24" height="24" /><rect x="192" y="408" width="24" height="24" /><rect x="360" y="408" width="24" height="24" /><rect x="384" y="408" width="24" height="24" /><rect x="480" y="408" width="24" height="24" /><rect x="504" y="408" width="24" height="24" /><rect x="192" y="432" width="24" height="24" /><rect x="240" y="432" width="24" height="24" /><rect x="264" y="432" width="24" height="24" /><rect x="288" y="432" width="24" height="24" /><rect x="384" y="432" width="24" height="24" /><rect x="432" y="432" width="24" height="24" /><rect x="480" y="432" width="24" height="24" /><rect x="528" y="432" width="24" height="24" /><rect x="552" y="432" width="24" height="24" /><rect x="576" y="432" width="24" height="24" /><rect x="216" y="456" width="24" height="24" /><rect x="264" y="456" width="24" height="24" /><rect x="336" y="456" width="24" height="24" /><rect x="384" y="456" width="24" height="24" /><rect x="480" y="456" width="24" height="24" /><rect x="504" y="456" width="24" height="24" /><rect x="192" y="480" width="24" height="24" /><rect x="216" y="480" width="24" height="24" /><rect x="264" y="480" width="24" height="24" /><rect x="360" y="480" width="24" height="24" /><rect x="384" y="480" width="24" height="24" /><rect x="408" y="480" width="24" height="24" /><rect x="432" y="480" width="24" height="24" /><rect x="456" y="480" width="24" height="24" /><rect x="480" y="480" width="24" height="24" /><rect x="528" y="480" width="24" height="24" /><rect x="576" y="480" width="24" height="24" /><rect x="192" y="504" width="24" height="24" /><rect x="216" y="504" width="24" height="24" /><rect x="240" y="504" width="24" height="24" /><rect x="288" y="504" width="24" height="24" /><rect x="312" y="504" width="24" height="24" /><rect x="336" y="504" width="24" height="24" /><rect x="360" y="504" width="24" height="24" /><rect x="408" y="504" width="24" height="24" /><rect x="432" y="504" width="24" height="24" /><rect x="480" y="504" width="24" height="24" /><rect x="504" y="504" width="24" height="24" /><rect x="528" y="504" width="24" height="24" /><rect x="552" y="504" width="24" height="24" /><rect x="576" y="504" width="24" height="24" /><rect x="192" y="528" width="24" height="24" /><rect x="240" y="528" width="24" height="24" /><rect x="312" y="528" width="24" height="24" /><rect x="336" y="528" width="24" height="24" /><rect x="384" y="528" width="24" height="24" /><rect x="504" y="528" width="24" height="24" /><rect x="528" y="528" width="24" height="24" /><rect x="576" y="528" width="24" height="24" /><rect x="192" y="552" width="24" height="24" /><rect x="216" y="552" width="24" height="24" /><rect x="240" y="552" width="24" height="24" /><rect x="288" y="552" width="24" height="24" /><rect x="312" y="552" width="24" height="24" /><rect x="360" y="552" width="24" height="24" /><rect x="384" y="552" width="24" height="24" /><rect x="408" y="552" width="24" height="24" /><rect x="432" y="552" width="24" height="24" /><rect x="456" y="552" width="24" height="24" /><rect x="480" y="552" width="24" height="24" /><rect x="504" y="552" width="24" height="24" /><rect x="576" y="552" width="24" height="24" /><rect x="192" y="576" width="24" height="24" /><rect x="216" y="576" width="24" height="24" /><rect x="240" y="576" width="24" height="24" /><rect x="288" y="576" width="24" height="24" /><rect x="336" y="576" width="24" height="24" /><rect x="408" y="576" width="24" height="24" /><rect x="456" y="576" width="24" height="24" /><rect x="480" y="576" width="24" height="24" /><rect x="504" y="576" width="24" height="24" /><rect x="528" y="576" width="24" height="24" /><rect x="552" y="576" width="24" height="24" /><rect x="576" y="576" width="24" height="24" /> </g><g > <path d="M132.0 24a12 12 90 0112 12v96a12 12 90 01-12 12h-96a12 12 90 01-12-12v-96a12 12 90 0112-12h96m0-24h-108q-24 0-24 24v120q0 24 24 24h120q24 0 24-24v-120q0-24-24-24zm-84 54v60a6 6 90 006 6h60a6 6 90 006-6v-60a6 6 90 00-6-6h-60a6 6 90 00-6 6" fill="black" fill-rule="evenodd" /><path d="M132.0 456a12 12 90 0112 12v96a12 12 90 01-12 12h-96a12 12 90 01-12-12v-96a12 12 90 0112-12h96m0-24h-108q-24 0-24 24v120q0 24 24 24h120q24 0 24-24v-120q0-24-24-24zm-84 54v60a6 6 90 006 6h60a6 6 90 006-6v-60a6 6 90 00-6-6h-60a6 6 90 00-6 6" fill="black" fill-rule="evenodd" /><path d="M564.0 24a12 12 90 0112 12v96a12 12 90 01-12 12h-96a12 12 90 01-12-12v-96a12 12 90 0112-12h96m0-24h-108q-24 0-24 24v120q0 24 24 24h120q24 0 24-24v-120q0-24-24-24zm-84 54v60a6 6 90 006 6h60a6 6 90 006-6v-60a6 6 90 00-6-6h-60a6 6 90 00-6 6" fill="black" fill-rule="evenodd" /> </g> </svg>